<svg width="21" height="20" viewBox="0 0 21 20" fill="none" xmlns="http://www.w3.org/2000/svg">
<g clip-path="url(#clip0_1040_9021)">
<path d="M18.8932 3.30791C16.718 1.13334 13.1795 1.13334 11.0049 3.30791L10.4998 3.8127L9.99504 3.30791C7.82046 1.13304 4.28163 1.13304 2.10706 3.30791C-0.0233606 5.43833 -0.0371946 8.81527 2.07498 11.1632C4.00142 13.3039 9.68304 17.9289 9.9241 18.1246C10.0878 18.2577 10.2847 18.3224 10.4804 18.3224C10.4869 18.3224 10.4934 18.3224 10.4995 18.3221C10.702 18.3315 10.906 18.2621 11.075 18.1246C11.316 17.9289 16.9982 13.3039 18.9253 11.1629C21.0371 8.81527 21.0233 5.43833 18.8932 3.30791ZM17.6125 9.98174C16.1105 11.6503 11.9818 15.0917 10.4995 16.313C9.01724 15.092 4.88944 11.6509 3.38773 9.98203C1.91427 8.34433 1.90044 6.01199 3.35564 4.55679C4.09885 3.81388 5.07488 3.44213 6.0509 3.44213C7.02693 3.44213 8.00295 3.81358 8.74616 4.55679L9.8564 5.66703C9.98856 5.79919 10.1552 5.87807 10.33 5.90574C10.6137 5.96667 10.9216 5.88749 11.1424 5.66732L12.2532 4.55679C13.7399 3.07067 16.1582 3.07097 17.644 4.55679C19.0992 6.01199 19.0854 8.34433 17.6125 9.98174Z" fill="white"/>
<path d="M17.6125 9.98174C16.1105 11.6503 11.9818 15.0917 10.4995 16.313C9.01724 15.092 4.88944 11.6509 3.38773 9.98203C1.91427 8.34433 1.90044 6.01199 3.35564 4.55679C4.09885 3.81388 5.07488 3.44213 6.0509 3.44213C7.02693 3.44213 8.00295 3.81358 8.74616 4.55679L9.8564 5.66703C9.98856 5.79919 10.1552 5.87807 10.33 5.90574C10.6137 5.96667 10.9216 5.88749 11.1424 5.66732L12.2532 4.55679C13.7399 3.07067 16.1582 3.07097 17.644 4.55679C19.0992 6.01199 19.0854 8.34433 17.6125 9.98174Z" fill="white"/>
</g>
<defs>
<clipPath id="clip0_1040_9021">
<rect width="20" height="20" fill="white" transform="translate(0.5)"/>
</clipPath>
</defs>
</svg>
