<svg width="20" height="20" viewBox="0 0 20 20" fill="none" xmlns="http://www.w3.org/2000/svg">
<path d="M18.9227 9.41083L13.0893 3.57749C12.9322 3.4257 12.7217 3.3417 12.5032 3.3436C12.2847 3.3455 12.0757 3.43314 11.9211 3.58764C11.7666 3.74215 11.679 3.95116 11.6771 4.16966C11.6752 4.38816 11.7592 4.59866 11.911 4.75583L16.3218 9.16666H1.66683C1.44582 9.16666 1.23385 9.25446 1.07757 9.41074C0.921293 9.56702 0.833496 9.77898 0.833496 9.99999C0.833496 10.221 0.921293 10.433 1.07757 10.5892C1.23385 10.7455 1.44582 10.8333 1.66683 10.8333H16.3218L11.911 15.2442C11.8314 15.321 11.7679 15.413 11.7242 15.5147C11.6806 15.6163 11.6576 15.7257 11.6566 15.8363C11.6557 15.947 11.6767 16.0567 11.7186 16.1591C11.7605 16.2615 11.8224 16.3546 11.9007 16.4328C11.9789 16.5111 12.072 16.5729 12.1744 16.6148C12.2768 16.6567 12.3865 16.6778 12.4972 16.6769C12.6078 16.6759 12.7172 16.6529 12.8188 16.6092C12.9205 16.5656 13.0125 16.5021 13.0893 16.4225L18.9227 10.5892C19.0789 10.4329 19.1667 10.221 19.1667 9.99999C19.1667 9.77902 19.0789 9.5671 18.9227 9.41083Z" fill="white"/>
</svg>
