<svg width="20" height="20" viewBox="0 0 20 20" fill="none" xmlns="http://www.w3.org/2000/svg">
<path d="M18.9225 9.41083L13.0892 3.57749C12.932 3.4257 12.7215 3.3417 12.503 3.3436C12.2845 3.3455 12.0755 3.43314 11.921 3.58764C11.7665 3.74215 11.6789 3.95116 11.677 4.16966C11.6751 4.38816 11.7591 4.59866 11.9109 4.75583L16.3217 9.16666H1.66671C1.44569 9.16666 1.23373 9.25446 1.07745 9.41074C0.921171 9.56702 0.833374 9.77898 0.833374 9.99999C0.833374 10.221 0.921171 10.433 1.07745 10.5892C1.23373 10.7455 1.44569 10.8333 1.66671 10.8333H16.3217L11.9109 15.2442C11.8313 15.321 11.7678 15.413 11.7241 15.5147C11.6804 15.6163 11.6575 15.7257 11.6565 15.8363C11.6555 15.947 11.6766 16.0567 11.7185 16.1591C11.7604 16.2615 11.8223 16.3546 11.9005 16.4328C11.9788 16.5111 12.0718 16.5729 12.1742 16.6148C12.2767 16.6567 12.3864 16.6778 12.497 16.6769C12.6077 16.6759 12.717 16.6529 12.8187 16.6092C12.9204 16.5656 13.0123 16.5021 13.0892 16.4225L18.9225 10.5892C19.0788 10.4329 19.1665 10.221 19.1665 9.99999C19.1665 9.77902 19.0788 9.5671 18.9225 9.41083Z" fill="#12477B"/>
</svg>
