<svg width="20" height="20" viewBox="0 0 20 20" fill="none" xmlns="http://www.w3.org/2000/svg">
<path d="M1.07758 9.41083L6.91092 3.5775C7.06808 3.4257 7.27859 3.34171 7.49708 3.34361C7.71558 3.3455 7.92459 3.43315 8.0791 3.58765C8.2336 3.74216 8.32124 3.95117 8.32314 4.16967C8.32504 4.38816 8.24105 4.59867 8.08925 4.75583L3.67841 9.16667H18.3334C18.5544 9.16667 18.7664 9.25447 18.9227 9.41075C19.079 9.56703 19.1667 9.77899 19.1667 10C19.1667 10.221 19.079 10.433 18.9227 10.5893C18.7664 10.7455 18.5544 10.8333 18.3334 10.8333H3.67841L8.08925 15.2442C8.16884 15.321 8.23233 15.413 8.276 15.5147C8.31967 15.6163 8.34266 15.7257 8.34362 15.8363C8.34459 15.947 8.3235 16.0567 8.2816 16.1591C8.2397 16.2615 8.17782 16.3546 8.09958 16.4328C8.02133 16.5111 7.92829 16.573 7.82588 16.6149C7.72346 16.6568 7.61373 16.6778 7.50308 16.6769C7.39243 16.6759 7.28308 16.6529 7.18141 16.6093C7.07974 16.5656 6.98779 16.5021 6.91092 16.4225L1.07758 10.5892C0.921356 10.4329 0.833593 10.221 0.833593 10C0.833593 9.77903 0.921356 9.56711 1.07758 9.41083Z" fill="#12477B"/>
</svg>
