<svg width="16" height="16" viewBox="0 0 16 16" fill="none" xmlns="http://www.w3.org/2000/svg">
<path d="M12.6866 5.6892C12.6897 5.55066 12.6495 5.41462 12.5716 5.29998C12.4938 5.18535 12.3821 5.09781 12.2522 5.04955C12.1223 5.00129 11.9807 4.9947 11.8468 5.03069C11.713 5.06669 11.5938 5.14348 11.5057 5.25039L8.01087 9.32982L4.51731 5.25039C4.46296 5.17644 4.39395 5.1145 4.31454 5.06846C4.23514 5.02242 4.14706 4.99327 4.05587 4.98284C3.96468 4.9724 3.87234 4.98091 3.78458 5.00783C3.69683 5.03474 3.61556 5.07949 3.5459 5.13926C3.47625 5.19903 3.41974 5.27254 3.37981 5.35518C3.33988 5.43783 3.31745 5.52783 3.31391 5.61954C3.31037 5.71126 3.32576 5.80272 3.3592 5.8882C3.39265 5.97367 3.44338 6.05132 3.50823 6.11628L7.50437 10.7869C7.56696 10.8602 7.64465 10.9191 7.7322 10.9595C7.81976 10.9999 7.91506 11.0208 8.01149 11.0208C8.10791 11.0208 8.20321 10.9999 8.29077 10.9595C8.37833 10.9191 8.45609 10.8602 8.51868 10.7869L12.5187 6.11628C12.6235 5.99829 12.6829 5.84696 12.6866 5.6892Z" fill="black"/>
</svg>
