<svg width="25" height="25" viewBox="0 0 25 25" fill="none" xmlns="http://www.w3.org/2000/svg">
<path d="M5.42257 9.65011C8.80367 10.2028 11.7394 10.2194 15.2214 9.65469C17.5328 9.27985 19.616 11.3047 19.0672 13.5767L17.1207 21.635C16.7855 23.0228 15.5414 24.0007 14.1111 24.0007H6.5487C5.11837 24.0007 3.87423 23.0228 3.53902 21.635L1.5888 13.5612C1.04089 11.2928 3.1154 9.27294 5.42257 9.65011Z" fill="#E8EDF2" stroke="#12477B" stroke-width="1.3"/>
<path d="M5.68262 12.2689L5.68262 7.67943C5.68263 5.63169 7.34265 3.97168 9.39038 3.97168H10.4497C12.4975 3.97168 14.1575 5.6317 14.1575 7.67943V12.4465" stroke="#12477B" stroke-width="1.3" stroke-linecap="round"/>
<rect x="12.98" width="11.52" height="11.52" rx="5.76" fill="#12477B"/>
<path d="M18.3766 9.108C18.0913 9.108 17.8233 9.05467 17.5726 8.948C17.3219 8.83867 17.1046 8.684 16.9206 8.484C16.7393 8.284 16.6073 8.048 16.5246 7.776L17.3326 7.552C17.4099 7.8 17.5446 7.99067 17.7366 8.124C17.9286 8.25467 18.1419 8.31867 18.3766 8.316C18.5873 8.31333 18.7726 8.264 18.9326 8.168C19.0926 8.072 19.2179 7.94267 19.3086 7.78C19.3993 7.61467 19.4446 7.42533 19.4446 7.212C19.4446 6.892 19.3446 6.628 19.1446 6.42C18.9473 6.212 18.6886 6.108 18.3686 6.108C18.2779 6.108 18.1846 6.12133 18.0886 6.148C17.9953 6.17467 17.9073 6.20933 17.8246 6.252L17.4326 5.592L19.4646 3.796L19.5526 4.036H16.7526V3.24H20.2166V4.036L18.5286 5.66L18.5206 5.388C18.8833 5.388 19.1979 5.46933 19.4646 5.632C19.7313 5.792 19.9366 6.01067 20.0806 6.288C20.2273 6.56267 20.3006 6.87067 20.3006 7.212C20.3006 7.58 20.2139 7.90667 20.0406 8.192C19.8699 8.47733 19.6393 8.70133 19.3486 8.864C19.0606 9.02667 18.7366 9.108 18.3766 9.108Z" fill="white"/>
</svg>
