<svg width="26" height="25" viewBox="0 0 26 25" fill="none" xmlns="http://www.w3.org/2000/svg">
<path d="M15.2214 9.65469C11.7394 10.2194 8.80367 10.2028 5.42257 9.65011C3.1154 9.27294 1.04089 11.2928 1.5888 13.5612L3.53902 21.635C3.87423 23.0228 5.11837 24.0007 6.5487 24.0007H14.1111C15.5414 24.0007 16.7855 23.0228 17.1207 21.635L19.0672 13.5767C19.616 11.3047 17.5328 9.27985 15.2214 9.65469Z" stroke="#999999" stroke-width="1.3"/>
<path d="M5.68256 12.2689L5.68256 7.67943C5.68257 5.63169 7.34258 3.97168 9.39032 3.97168H10.4497C12.4974 3.97168 14.1574 5.6317 14.1574 7.67943V12.4465" stroke="#999999" stroke-width="1.3" stroke-linecap="round"/>
<rect x="12.5" width="13" height="13" rx="6.5" fill="#12477B"/>
<path d="M19.3537 10.135C18.997 10.135 18.662 10.0683 18.3487 9.935C18.0353 9.79833 17.7637 9.605 17.5337 9.355C17.307 9.105 17.142 8.81 17.0387 8.47L18.0487 8.19C18.1453 8.5 18.3137 8.73833 18.5537 8.905C18.7937 9.06833 19.0603 9.14833 19.3537 9.145C19.617 9.14167 19.8487 9.08 20.0487 8.96C20.2487 8.84 20.4053 8.67833 20.5187 8.475C20.632 8.26833 20.6887 8.03167 20.6887 7.765C20.6887 7.365 20.5637 7.035 20.3137 6.775C20.067 6.515 19.7437 6.385 19.3437 6.385C19.2303 6.385 19.1137 6.40167 18.9937 6.435C18.877 6.46833 18.767 6.51167 18.6637 6.565L18.1737 5.74L20.7137 3.495L20.8237 3.795H17.3237V2.8H21.6537V3.795L19.5437 5.825L19.5337 5.485C19.987 5.485 20.3803 5.58667 20.7137 5.79C21.047 5.99 21.3037 6.26333 21.4837 6.61C21.667 6.95333 21.7587 7.33833 21.7587 7.765C21.7587 8.225 21.6503 8.63333 21.4337 8.99C21.2203 9.34667 20.932 9.62667 20.5687 9.83C20.2087 10.0333 19.8037 10.135 19.3537 10.135Z" fill="white"/>
</svg>
