<svg width="33" height="32" viewBox="0 0 33 32" fill="none" xmlns="http://www.w3.org/2000/svg">
<g clip-path="url(#clip0_1022_10557)">
<path d="M27.7 28.8H6.9C6.02 28.8 5.3 28.08 5.3 27.2C5.3 26.32 6.02 25.6 6.9 25.6H27.7C28.116 25.6 28.532 25.424 28.836 25.136C29.14 24.848 29.3 24.432 29.3 24V8C29.3 7.584 29.124 7.168 28.836 6.864C28.548 6.56 28.132 6.4 27.7 6.4H5.3C4.884 6.4 4.468 6.576 4.164 6.864C3.86 7.152 3.7 7.568 3.7 8V12.8C3.7 13.68 2.98 14.4 2.1 14.4C1.22 14.4 0.5 13.68 0.5 12.8V8C0.5 6.72 0.996 5.52 1.908 4.608C2.82 3.696 4.02 3.2 5.3 3.2H27.7C28.98 3.2 30.18 3.696 31.092 4.608C32.004 5.52 32.5 6.72 32.5 8V24C32.5 25.28 32.004 26.48 31.092 27.392C30.18 28.304 28.98 28.8 27.7 28.8Z" fill="#12477B"/>
<path d="M10.1 24H3.70001C2.82001 24 2.10001 23.28 2.10001 22.4C2.10001 21.52 2.82001 20.8 3.70001 20.8H10.1C10.98 20.8 11.7 21.52 11.7 22.4C11.7 23.28 10.98 24 10.1 24Z" fill="#12477B" stroke="#12477B" stroke-width="0.5"/>
<path d="M6.9 19.2H2.1C1.22 19.2 0.5 18.48 0.5 17.6C0.5 16.72 1.22 16 2.1 16H6.9C7.78 16 8.5 16.72 8.5 17.6C8.5 18.48 7.78 19.2 6.9 19.2Z" fill="#12477B"/>
<path fill-rule="evenodd" clip-rule="evenodd" d="M6.052 13.072C6.052 13.072 11.22 16.272 13.972 17.968C15.524 18.928 17.476 18.928 19.028 17.968C21.78 16.272 26.948 13.072 26.948 13.072C27.7 12.608 27.924 11.616 27.46 10.864C26.996 10.112 26.004 9.888 25.252 10.352L17.332 15.248C16.82 15.568 16.164 15.568 15.652 15.248L7.732 10.352C6.98 9.888 5.988 10.112 5.524 10.864C5.06 11.616 5.3 12.608 6.036 13.072H6.052Z" fill="#12477B"/>
</g>
<defs>
<clipPath id="clip0_1022_10557">
<rect width="32" height="32" fill="white" transform="translate(0.5)"/>
</clipPath>
</defs>
</svg>
