<svg width="17" height="16" viewBox="0 0 17 16" fill="none" xmlns="http://www.w3.org/2000/svg">
<path d="M9.56146 7.64657L9.2079 8.00013L9.56146 8.35368L13.8565 12.6487C13.9503 12.7426 14.0031 12.8699 14.0031 13.0026C14.0031 13.1354 13.9503 13.2627 13.8565 13.3566C13.7626 13.4504 13.6353 13.5032 13.5025 13.5032C13.3698 13.5032 13.2424 13.4504 13.1486 13.3566L8.85356 9.06157L8.4998 8.70781L8.14625 9.06178L3.85646 13.3566L3.85625 13.3568C3.7624 13.4505 3.63517 13.5032 3.50251 13.5032C3.36975 13.5032 3.24244 13.4504 3.14856 13.3566C3.05469 13.2627 3.00195 13.1354 3.00195 13.0026C3.00195 12.8699 3.05469 12.7426 3.14856 12.6487L3.14877 12.6485L7.43877 8.35347L7.79171 8.00013L7.43877 7.64678L3.16464 3.36767C3.08935 3.27388 3.05027 3.15591 3.05493 3.03537C3.05979 2.90953 3.11195 2.79016 3.201 2.70112C3.29005 2.61207 3.40942 2.5599 3.53525 2.55504C3.65579 2.55039 3.77376 2.58946 3.86755 2.66476L8.14666 6.93889L8.50022 7.29203L8.85356 6.93868L13.1486 2.64368C13.2424 2.54981 13.3698 2.49707 13.5025 2.49707C13.6353 2.49707 13.7626 2.54981 13.8565 2.64368C13.9503 2.73755 14.0031 2.86487 14.0031 2.99763C14.0031 3.13038 13.9503 3.2577 13.8565 3.35157L9.56146 7.64657Z" fill="#C50030" stroke="#C50030"/>
</svg>
