<svg width="12" height="12" viewBox="0 0 12 12" fill="none" xmlns="http://www.w3.org/2000/svg">
<path d="M7.06126 6.00034L10.2825 2.77909C10.4232 2.63836 10.5023 2.44749 10.5023 2.24846C10.5023 2.04944 10.4232 1.85857 10.2825 1.71784C10.1418 1.57711 9.9509 1.49805 9.75188 1.49805C9.55286 1.49805 9.36199 1.57711 9.22126 1.71784L6.00001 4.93909L2.77876 1.72159C2.63528 1.59872 2.45072 1.53451 2.26197 1.54181C2.07321 1.5491 1.89416 1.62735 1.76058 1.76092C1.62701 1.89449 1.54876 2.07354 1.54147 2.2623C1.53418 2.45106 1.59839 2.63561 1.72126 2.77909L4.93876 6.00034L1.72126 9.22159C1.58053 9.36232 1.50146 9.55319 1.50146 9.75221C1.50146 9.95124 1.58053 10.1421 1.72126 10.2828C1.86199 10.4236 2.05286 10.5026 2.25188 10.5026C2.4509 10.5026 2.64178 10.4236 2.78251 10.2828L6.00001 7.06159L9.22126 10.2828C9.36199 10.4236 9.55286 10.5026 9.75188 10.5026C9.9509 10.5026 10.1418 10.4236 10.2825 10.2828C10.4232 10.1421 10.5023 9.95124 10.5023 9.75221C10.5023 9.55319 10.4232 9.36232 10.2825 9.22159L7.06126 6.00034Z" fill="#12477B"/>
</svg>
