<svg width="16" height="16" viewBox="0 0 16 16" fill="none" xmlns="http://www.w3.org/2000/svg">
<path d="M9.41501 8.00013L13.71 3.70513C13.8976 3.51749 14.0031 3.26299 14.0031 2.99763C14.0031 2.73226 13.8976 2.47777 13.71 2.29013C13.5224 2.10249 13.2679 1.99707 13.0025 1.99707C12.7371 1.99707 12.4827 2.10249 12.295 2.29013L8.00001 6.58513L3.70501 2.29513C3.51371 2.1313 3.26763 2.04569 3.01596 2.05542C2.76428 2.06514 2.52554 2.16947 2.34745 2.34756C2.16935 2.52566 2.06502 2.7644 2.0553 3.01607C2.04558 3.26775 2.13118 3.51382 2.29501 3.70513L6.58501 8.00013L2.29501 12.2951C2.10737 12.4828 2.00195 12.7373 2.00195 13.0026C2.00195 13.268 2.10737 13.5225 2.29501 13.7101C2.48265 13.8978 2.73715 14.0032 3.00251 14.0032C3.26787 14.0032 3.52237 13.8978 3.71001 13.7101L8.00001 9.41513L12.295 13.7101C12.4827 13.8978 12.7371 14.0032 13.0025 14.0032C13.2679 14.0032 13.5224 13.8978 13.71 13.7101C13.8976 13.5225 14.0031 13.268 14.0031 13.0026C14.0031 12.7373 13.8976 12.4828 13.71 12.2951L9.41501 8.00013Z" fill="#1A1A1A"/>
</svg>
