<svg width="20" height="20" viewBox="0 0 20 20" fill="none" xmlns="http://www.w3.org/2000/svg">
<path d="M1.875 6.5625H3.125C3.77836 6.56367 4.4245 6.69908 5.02335 6.96034C5.6222 7.2216 6.16098 7.60312 6.60625 8.08125L7.41875 8.95625C7.50288 9.04653 7.60397 9.11936 7.71624 9.17058C7.82851 9.2218 7.94978 9.2504 8.07311 9.25475C8.19643 9.2591 8.31941 9.23912 8.43502 9.19595C8.55062 9.15277 8.65659 9.08725 8.74688 9.00312C8.83716 8.919 8.90999 8.81791 8.96121 8.70564C9.01242 8.59336 9.04102 8.4721 9.04538 8.34877C9.04973 8.22544 9.02975 8.10247 8.98657 7.98686C8.9434 7.87125 8.87788 7.76528 8.79375 7.675L7.98125 6.80625C7.3609 6.13825 6.60948 5.60534 5.77393 5.24079C4.93837 4.87624 4.03662 4.68789 3.125 4.6875H1.875C1.62636 4.6875 1.3879 4.78627 1.21209 4.96209C1.03627 5.1379 0.9375 5.37636 0.9375 5.625C0.9375 5.87364 1.03627 6.1121 1.21209 6.28791C1.3879 6.46373 1.62636 6.5625 1.875 6.5625Z" fill="#12477B"/>
<path d="M16.7625 2.93755C16.6767 2.84544 16.5732 2.77156 16.4582 2.72032C16.3432 2.66908 16.219 2.64153 16.0932 2.63931C15.9673 2.63709 15.8422 2.66024 15.7255 2.70739C15.6088 2.75454 15.5027 2.82472 15.4137 2.91375C15.3247 3.00277 15.2545 3.10881 15.2073 3.22555C15.1602 3.34228 15.137 3.46732 15.1393 3.5932C15.1415 3.71908 15.169 3.84322 15.2203 3.95822C15.2715 4.07322 15.3454 4.17672 15.4375 4.26255L15.8813 4.7063C14.1637 4.79544 12.5479 5.54841 11.375 6.8063L6.625 11.9188C6.17757 12.3992 5.63576 12.7821 5.03351 13.0434C4.43125 13.3048 3.78151 13.439 3.125 13.4375H1.875C1.62636 13.4375 1.3879 13.5363 1.21209 13.7121C1.03627 13.8879 0.9375 14.1264 0.9375 14.375C0.9375 14.6237 1.03627 14.8621 1.21209 15.038C1.3879 15.2138 1.62636 15.3125 1.875 15.3125H3.125C4.03662 15.3122 4.93837 15.1238 5.77393 14.7593C6.60948 14.3947 7.3609 13.8618 7.98125 13.1938L12.7313 8.0813C13.5486 7.20801 14.6636 6.6728 15.8563 6.5813L15.45 6.98755C15.3623 7.07416 15.2927 7.17732 15.2452 7.29105C15.1977 7.40477 15.1732 7.52679 15.1732 7.65005C15.1732 7.7733 15.1977 7.89532 15.2452 8.00904C15.2927 8.12277 15.3623 8.22593 15.45 8.31255C15.5361 8.40076 15.6392 8.47061 15.7531 8.51787C15.867 8.56514 15.9892 8.58884 16.1125 8.58755C16.2357 8.58848 16.3579 8.56462 16.4717 8.51737C16.5855 8.47013 16.6887 8.40047 16.775 8.31255L18.8 6.28755C18.8877 6.20093 18.9573 6.09777 19.0048 5.98404C19.0523 5.87032 19.0768 5.7483 19.0768 5.62505C19.0768 5.5018 19.0523 5.37977 19.0048 5.26605C18.9573 5.15232 18.8877 5.04916 18.8 4.96255L16.7625 2.93755Z" fill="#12477B"/>
<path d="M16.7625 11.6875C16.6767 11.5954 16.5732 11.5215 16.4582 11.4703C16.3432 11.419 16.2191 11.3915 16.0932 11.3892C15.9673 11.387 15.8423 11.4102 15.7255 11.4573C15.6088 11.5045 15.5027 11.5747 15.4137 11.6637C15.3247 11.7527 15.2545 11.8588 15.2074 11.9755C15.1602 12.0922 15.1371 12.2173 15.1393 12.3431C15.1415 12.469 15.1691 12.5932 15.2203 12.7082C15.2715 12.8232 15.3454 12.9267 15.4375 13.0125L15.8438 13.4187C14.6512 13.3272 13.5361 12.792 12.7188 11.9187L11.9063 11.0437C11.7326 10.8976 11.5117 10.8195 11.2848 10.8239C11.0578 10.8283 10.8402 10.9148 10.6722 11.0675C10.5043 11.2202 10.3974 11.4287 10.3715 11.6542C10.3456 11.8797 10.4023 12.1069 10.5313 12.2937L11.3438 13.1625C12.5167 14.4204 14.1324 15.1733 15.85 15.2625L15.4063 15.7062C15.3186 15.7929 15.249 15.896 15.2015 16.0097C15.154 16.1235 15.1295 16.2455 15.1295 16.3687C15.1295 16.492 15.154 16.614 15.2015 16.7277C15.249 16.8415 15.3186 16.9446 15.4063 17.0312C15.4924 17.1195 15.5955 17.1893 15.7094 17.2366C15.8232 17.2838 15.9455 17.3075 16.0688 17.3062C16.192 17.3072 16.3142 17.2833 16.428 17.2361C16.5418 17.1888 16.6449 17.1192 16.7313 17.0312L18.7563 15.0062C18.844 14.9196 18.9136 14.8165 18.9611 14.7027C19.0086 14.589 19.0331 14.467 19.0331 14.3437C19.0331 14.2205 19.0086 14.0985 18.9611 13.9847C18.9136 13.871 18.844 13.7679 18.7563 13.6812L16.7625 11.6875Z" fill="#12477B"/>
</svg>
