<svg width="24" height="24" viewBox="0 0 24 24" fill="none" xmlns="http://www.w3.org/2000/svg">
<g clip-path="url(#clip0_1040_7764)">
<path d="M22.4438 20.1564H1.55624C0.698422 20.1564 0 19.458 0 18.5955V5.40487C0 4.54706 0.698422 3.84863 1.55624 3.84863H22.439C23.3015 3.84863 24 4.54706 24 5.40487V18.5955C24 19.458 23.3016 20.1564 22.4438 20.1564Z" fill="#505278"/>
<path d="M22.4438 3.84863H12V20.1564H22.4437C23.3062 20.1564 24 19.458 24 18.6002V5.40487C24 4.54706 23.3016 3.84863 22.4438 3.84863Z" fill="#424566"/>
<path d="M12.5203 3.84843C12.3609 8.66249 8.39531 12.525 3.54375 12.525C2.28748 12.525 1.0875 12.2672 0 11.7937V9.69844C1.04531 10.3031 2.2547 10.6453 3.54375 10.6453C7.35937 10.6453 10.4812 7.62186 10.6406 3.84375H12.5203V3.84843H12.5203Z" fill="#575982"/>
<path d="M12 3.84863V6.57207C12.3047 5.71425 12.4875 4.8002 12.5203 3.84863H12Z" fill="#505278"/>
<path d="M24 13.3827V15.2859C22.875 15.0702 21.7781 14.9765 20.6906 15.0843C18.7266 15.2812 16.9031 16.2 14.9484 17.9765C14.6344 18.2624 14.3156 18.5578 14.0109 18.8437C13.5422 19.2796 13.0734 19.7202 12.5812 20.1515H9.5437C10.6687 19.4015 11.6765 18.4593 12.7312 17.4749C13.0453 17.1843 13.364 16.8796 13.6874 16.589C15.9562 14.5312 18.1218 13.4577 20.5031 13.2187C21.6797 13.1015 22.8703 13.1952 24 13.3827Z" fill="#505278"/>
<path d="M9.5437 20.1559H11.9999V18.1543C11.1984 18.8902 10.4062 19.5793 9.5437 20.1559Z" fill="#575982"/>
<path d="M5.02501 11.7846H2.72344C2.37186 11.7846 2.08594 11.4987 2.08594 11.1471V9.61894C2.08594 9.26737 2.37186 8.98145 2.72344 8.98145H5.02501C5.37658 8.98145 5.66251 9.26737 5.66251 9.61894V11.1471C5.65782 11.5033 5.37654 11.7846 5.02501 11.7846Z" fill="#424566"/>
<path d="M5.02498 11.7469H2.71872C2.39061 11.7469 2.12341 11.4797 2.12341 11.1516V9.61874C2.12341 9.29063 2.39061 9.02344 2.71872 9.02344H5.02498C5.35309 9.02344 5.62029 9.29063 5.62029 9.61874V11.1516C5.62029 11.4797 5.35309 11.7469 5.02498 11.7469Z" fill="#FEBD55"/>
<path d="M5.62029 10.4346V10.3408H4.40153V9.92833L4.7156 9.61426H5.62029C5.62029 9.58144 5.6156 9.54865 5.61092 9.52051H4.69218C4.67813 9.52051 4.66872 9.5252 4.65935 9.53456L4.33124 9.86268H3.9187V9.02832H3.82496V9.86268H3.41714L3.08903 9.53456C3.07966 9.5252 3.06557 9.52051 3.0562 9.52051H2.13278C2.1281 9.54865 2.12341 9.58144 2.12341 9.61426H3.03747L3.34685 9.92364V10.3408H2.12341V10.4346H3.34685V10.8518L3.03747 11.1611H2.12341C2.12341 11.194 2.1281 11.2267 2.13278 11.2549H3.0562C3.07025 11.2549 3.07966 11.2502 3.08903 11.2408L3.41714 10.9127H3.82496V11.7471H3.9187V10.9127H4.3312L4.65932 11.2408C4.66868 11.2502 4.67805 11.2549 4.69214 11.2549H5.61088C5.61556 11.2267 5.62025 11.194 5.62025 11.1611H4.71556L4.40149 10.8471V10.4346H5.62029ZM4.30778 10.8189H3.4406V9.95174H4.30778V10.8189Z" fill="#B5613C"/>
<path d="M21.4875 11.719C21.4641 11.719 21.4453 11.7143 21.4266 11.705C21.3563 11.6721 21.3282 11.5878 21.3657 11.5175C21.7266 10.8003 21.7266 9.97997 21.3657 9.26277C21.3329 9.19244 21.361 9.1081 21.4266 9.07528C21.4969 9.04245 21.5813 9.07059 21.6141 9.1362C22.0172 9.93309 22.0172 10.8471 21.6141 11.644C21.586 11.6909 21.5391 11.719 21.4875 11.719ZM21.0047 11.4518C21.3844 10.7768 21.3844 9.9987 21.0047 9.32369C20.9672 9.25809 20.8828 9.22995 20.8125 9.27214C20.7469 9.30964 20.7188 9.39402 20.761 9.46432C21.0938 10.0549 21.0938 10.7299 20.761 11.3159C20.7235 11.3815 20.7469 11.4706 20.8125 11.5081C20.836 11.5221 20.8594 11.5268 20.8829 11.5268C20.9297 11.5222 20.9766 11.494 21.0047 11.4518ZM20.4047 11.2596C20.775 10.7206 20.775 10.0503 20.4047 9.50651C20.3625 9.4409 20.2735 9.42681 20.2079 9.469C20.1423 9.51119 20.1282 9.60025 20.1704 9.66586C20.4704 10.1065 20.4704 10.6596 20.1704 11.1003C20.1282 11.1659 20.1422 11.2502 20.2079 11.2971C20.2313 11.3158 20.2594 11.3205 20.2876 11.3205C20.3344 11.3253 20.3766 11.3018 20.4047 11.2596ZM19.7719 11.0815C19.9782 10.894 20.0907 10.6456 20.0907 10.3878C20.0907 10.13 19.9782 9.88154 19.7719 9.69404C19.7157 9.64248 19.6266 9.64248 19.575 9.70341C19.5235 9.75965 19.5235 9.84871 19.5844 9.90027C19.7297 10.0362 19.8094 10.2097 19.8094 10.3878C19.8094 10.5659 19.7297 10.7394 19.5844 10.8753C19.5282 10.9268 19.5235 11.0159 19.575 11.0722C19.6032 11.1003 19.6407 11.119 19.6782 11.119C19.7109 11.119 19.7438 11.105 19.7719 11.0815Z" fill="#CAD4FF"/>
<path d="M11.8078 17.7939H2.26403C2.18434 17.7939 2.12341 17.733 2.12341 17.6533C2.12341 17.5736 2.18434 17.5127 2.26403 17.5127H11.8078C11.8875 17.5127 11.9484 17.5736 11.9484 17.6533C11.9484 17.733 11.8828 17.7939 11.8078 17.7939Z" fill="#E6EAFF"/>
<path d="M21.7735 17.7939H19.9641C19.8844 17.7939 19.8235 17.733 19.8235 17.6533C19.8235 17.5736 19.8844 17.5127 19.9641 17.5127H21.7735C21.8532 17.5127 21.9141 17.5736 21.9141 17.6533C21.9141 17.733 21.8485 17.7939 21.7735 17.7939ZM19.1954 17.6533C19.1954 17.5736 19.1344 17.5127 19.0547 17.5127H17.2454C17.1657 17.5127 17.1047 17.5736 17.1047 17.6533C17.1047 17.733 17.1657 17.7939 17.2454 17.7939H19.0547C19.1344 17.7939 19.1954 17.7283 19.1954 17.6533Z" fill="#CAD4FF"/>
<path d="M2.26403 7.0453C2.18434 7.0453 2.12341 6.98437 2.12341 6.90468V6.35156C2.12341 6.27186 2.18434 6.21094 2.26403 6.21094C2.34373 6.21094 2.40466 6.27186 2.40466 6.35156V6.89999C2.40466 6.97969 2.34373 7.0453 2.26403 7.0453ZM3.16872 6.90468V6.35156C3.16872 6.27186 3.1078 6.21094 3.0281 6.21094C2.94841 6.21094 2.88748 6.27186 2.88748 6.35156V6.89999C2.88748 6.97969 2.94841 7.04061 3.0281 7.04061C3.10776 7.0453 3.16872 6.97969 3.16872 6.90468ZM3.93748 6.90468V6.35156C3.93748 6.27186 3.87655 6.21094 3.79686 6.21094C3.71716 6.21094 3.65623 6.27186 3.65623 6.35156V6.89999C3.65623 6.97969 3.71716 7.04061 3.79686 7.04061C3.87183 7.0453 3.93748 6.97969 3.93748 6.90468ZM4.70155 6.90468V6.35156C4.70155 6.27186 4.64062 6.21094 4.56092 6.21094C4.48123 6.21094 4.4203 6.27186 4.4203 6.35156V6.89999C4.4203 6.97969 4.48123 7.04061 4.56092 7.04061C4.64058 7.0453 4.70155 6.97969 4.70155 6.90468Z" fill="#E6EAFF"/>
<path d="M2.55462 15.4074H2.53116C2.29679 15.4074 2.10461 15.2152 2.10461 14.9809V14.3152C2.10461 14.0809 2.29679 13.8887 2.53116 13.8887H2.55462C2.78899 13.8887 2.98116 14.0809 2.98116 14.3152V14.9809C2.9812 15.2152 2.79371 15.4074 2.55462 15.4074ZM2.5312 14.1699C2.4515 14.1699 2.3859 14.2355 2.3859 14.3152V14.9808C2.3859 15.0605 2.4515 15.1261 2.5312 15.1261H2.55466C2.63435 15.1261 2.69996 15.0605 2.69996 14.9808V14.3152C2.69996 14.2355 2.63435 14.1699 2.55466 14.1699H2.5312Z" fill="#E6EAFF"/>
<path d="M3.69366 15.4074H3.6702C3.43583 15.4074 3.24365 15.2152 3.24365 14.9809V14.3152C3.24365 14.0809 3.43583 13.8887 3.6702 13.8887H3.69366C3.92802 13.8887 4.1202 14.0809 4.1202 14.3152V14.9809C4.12024 15.2152 3.93275 15.4074 3.69366 15.4074ZM3.67024 14.1699C3.59054 14.1699 3.52493 14.2355 3.52493 14.3152V14.9808C3.52493 15.0605 3.59054 15.1261 3.67024 15.1261H3.69369C3.77339 15.1261 3.839 15.0605 3.839 14.9808V14.3152C3.839 14.2355 3.77339 14.1699 3.69369 14.1699H3.67024Z" fill="#E6EAFF"/>
<path d="M4.83282 15.4074H4.80936C4.57499 15.4074 4.38281 15.2152 4.38281 14.9809V14.3152C4.38281 14.0809 4.57499 13.8887 4.80936 13.8887H4.83282C5.06718 13.8887 5.25936 14.0809 5.25936 14.3152V14.9809C5.25936 15.2152 5.06718 15.4074 4.83282 15.4074ZM4.80936 14.1699C4.72966 14.1699 4.66405 14.2355 4.66405 14.3152V14.9808C4.66405 15.0605 4.72966 15.1261 4.80936 15.1261H4.83282C4.91251 15.1261 4.97812 15.0605 4.97812 14.9808V14.3152C4.97812 14.2355 4.91251 14.1699 4.83282 14.1699H4.80936Z" fill="#E6EAFF"/>
<path d="M5.97185 15.4074H5.9484C5.71403 15.4074 5.52185 15.2152 5.52185 14.9809V14.3152C5.52185 14.0809 5.71403 13.8887 5.9484 13.8887H5.97185C6.20622 13.8887 6.3984 14.0809 6.3984 14.3152V14.9809C6.3984 15.2152 6.20622 15.4074 5.97185 15.4074ZM5.9484 14.1699C5.8687 14.1699 5.80309 14.2355 5.80309 14.3152V14.9808C5.80309 15.0605 5.8687 15.1261 5.9484 15.1261H5.97185C6.05155 15.1261 6.11716 15.0605 6.11716 14.9808V14.3152C6.11716 14.2355 6.05155 14.1699 5.97185 14.1699H5.9484Z" fill="#E6EAFF"/>
<path d="M7.72027 15.4074H7.69681C7.46244 15.4074 7.27026 15.2152 7.27026 14.9809V14.3152C7.27026 14.0809 7.46244 13.8887 7.69681 13.8887H7.72027C7.95463 13.8887 8.14681 14.0809 8.14681 14.3152V14.9809C8.14685 15.2152 7.95463 15.4074 7.72027 15.4074ZM7.69685 14.1699C7.61715 14.1699 7.55155 14.2355 7.55155 14.3152V14.9808C7.55155 15.0605 7.61715 15.1261 7.69685 15.1261H7.72031C7.8 15.1261 7.86561 15.0605 7.86561 14.9808V14.3152C7.86561 14.2355 7.8 14.1699 7.72031 14.1699H7.69685Z" fill="#E6EAFF"/>
<path d="M8.8593 15.4074H8.83585C8.60148 15.4074 8.4093 15.2152 8.4093 14.9809V14.3152C8.4093 14.0809 8.60148 13.8887 8.83585 13.8887H8.8593C9.09367 13.8887 9.28585 14.0809 9.28585 14.3152V14.9809C9.28589 15.2152 9.09367 15.4074 8.8593 15.4074ZM8.83589 14.1699C8.75619 14.1699 8.69058 14.2355 8.69058 14.3152V14.9808C8.69058 15.0605 8.75619 15.1261 8.83589 15.1261H8.85934C8.93904 15.1261 9.00465 15.0605 9.00465 14.9808V14.3152C9.00465 14.2355 8.93904 14.1699 8.85934 14.1699H8.83589Z" fill="#E6EAFF"/>
<path d="M9.99834 15.4074H9.97489C9.74052 15.4074 9.54834 15.2152 9.54834 14.9809V14.3152C9.54834 14.0809 9.74052 13.8887 9.97489 13.8887H9.99834C10.2327 13.8887 10.4249 14.0809 10.4249 14.3152V14.9809C10.4249 15.2152 10.2328 15.4074 9.99834 15.4074ZM9.97493 14.1699C9.89523 14.1699 9.82962 14.2355 9.82962 14.3152V14.9808C9.82962 15.0605 9.89523 15.1261 9.97493 15.1261H9.99838C10.0781 15.1261 10.1437 15.0605 10.1437 14.9808V14.3152C10.1437 14.2355 10.0781 14.1699 9.99838 14.1699H9.97493Z" fill="#E6EAFF"/>
<path d="M11.1374 15.4074H11.1139C10.8796 15.4074 10.6874 15.2152 10.6874 14.9809V14.3152C10.6874 14.0809 10.8796 13.8887 11.1139 13.8887H11.1374C11.3718 13.8887 11.5639 14.0809 11.5639 14.3152V14.9809C11.564 15.2152 11.3718 15.4074 11.1374 15.4074ZM11.114 14.1699C11.0343 14.1699 10.9687 14.2355 10.9687 14.3152V14.9808C10.9687 15.0605 11.0343 15.1261 11.114 15.1261H11.1374C11.2171 15.1261 11.2827 15.0605 11.2827 14.9808V14.3152C11.2827 14.2355 11.2171 14.1699 11.1374 14.1699H11.114Z" fill="#E6EAFF"/>
<path d="M12.8859 15.4074H12.8625C12.6281 15.4074 12.4359 15.2152 12.4359 14.9809V14.3152C12.4359 14.0809 12.6281 13.8887 12.8625 13.8887H12.8859C13.1203 13.8887 13.3125 14.0809 13.3125 14.3152V14.9809C13.3125 15.2152 13.1203 15.4074 12.8859 15.4074ZM12.8625 14.1699C12.7828 14.1699 12.7172 14.2355 12.7172 14.3152V14.9808C12.7172 15.0605 12.7828 15.1261 12.8625 15.1261H12.8859C12.9656 15.1261 13.0312 15.0605 13.0312 14.9808V14.3152C13.0312 14.2355 12.9656 14.1699 12.8859 14.1699H12.8625Z" fill="#CAD4FF"/>
<path d="M14.025 15.4074H14.0016C13.7673 15.4074 13.5751 15.2152 13.5751 14.9809V14.3152C13.5751 14.0809 13.7673 13.8887 14.0016 13.8887H14.025C14.2594 13.8887 14.4516 14.0809 14.4516 14.3152V14.9809C14.4516 15.2152 14.2594 15.4074 14.025 15.4074ZM14.0016 14.1699C13.9219 14.1699 13.8563 14.2355 13.8563 14.3152V14.9808C13.8563 15.0605 13.9219 15.1261 14.0016 15.1261H14.025C14.1047 15.1261 14.1703 15.0605 14.1703 14.9808V14.3152C14.1703 14.2355 14.1047 14.1699 14.025 14.1699H14.0016Z" fill="#CAD4FF"/>
<path d="M15.164 15.4074H15.1405C14.9062 15.4074 14.714 15.2152 14.714 14.9809V14.3152C14.714 14.0809 14.9062 13.8887 15.1405 13.8887H15.164C15.3984 13.8887 15.5905 14.0809 15.5905 14.3152V14.9809C15.5906 15.2152 15.3984 15.4074 15.164 15.4074ZM15.1406 14.1699C15.0609 14.1699 14.9953 14.2355 14.9953 14.3152V14.9808C14.9953 15.0605 15.0609 15.1261 15.1406 15.1261H15.164C15.2437 15.1261 15.3093 15.0605 15.3093 14.9808V14.3152C15.3093 14.2355 15.2437 14.1699 15.164 14.1699H15.1406Z" fill="#CAD4FF"/>
<path d="M16.3032 15.4074H16.2797C16.0453 15.4074 15.8531 15.2152 15.8531 14.9809V14.3152C15.8531 14.0809 16.0453 13.8887 16.2797 13.8887H16.3032C16.5375 13.8887 16.7297 14.0809 16.7297 14.3152V14.9809C16.7297 15.2152 16.5375 15.4074 16.3032 15.4074ZM16.2797 14.1699C16.2 14.1699 16.1344 14.2355 16.1344 14.3152V14.9808C16.1344 15.0605 16.2 15.1261 16.2797 15.1261H16.3032C16.3829 15.1261 16.4485 15.0605 16.4485 14.9808V14.3152C16.4485 14.2355 16.3829 14.1699 16.3032 14.1699H16.2797Z" fill="#CAD4FF"/>
<path d="M18.0516 15.4074H18.0281C17.7937 15.4074 17.6016 15.2152 17.6016 14.9809V14.3152C17.6016 14.0809 17.7937 13.8887 18.0281 13.8887H18.0516C18.2859 13.8887 18.4781 14.0809 18.4781 14.3152V14.9809C18.4781 15.2152 18.2859 15.4074 18.0516 15.4074ZM18.0281 14.1699C17.9484 14.1699 17.8828 14.2355 17.8828 14.3152V14.9808C17.8828 15.0605 17.9484 15.1261 18.0281 15.1261H18.0516C18.1313 15.1261 18.1969 15.0605 18.1969 14.9808V14.3152C18.1969 14.2355 18.1313 14.1699 18.0516 14.1699H18.0281Z" fill="#CAD4FF"/>
<path d="M19.1906 15.4074H19.1671C18.9328 15.4074 18.7406 15.2152 18.7406 14.9809V14.3152C18.7406 14.0809 18.9328 13.8887 19.1671 13.8887H19.1906C19.4249 13.8887 19.6171 14.0809 19.6171 14.3152V14.9809C19.6171 15.2152 19.4249 15.4074 19.1906 15.4074ZM19.1671 14.1699C19.0874 14.1699 19.0218 14.2355 19.0218 14.3152V14.9808C19.0218 15.0605 19.0874 15.1261 19.1671 15.1261H19.1905C19.2702 15.1261 19.3358 15.0605 19.3358 14.9808V14.3152C19.3358 14.2355 19.2702 14.1699 19.1905 14.1699H19.1671Z" fill="#CAD4FF"/>
<path d="M20.3296 15.4074H20.3062C20.0718 15.4074 19.8796 15.2152 19.8796 14.9809V14.3152C19.8796 14.0809 20.0718 13.8887 20.3062 13.8887H20.3296C20.564 13.8887 20.7562 14.0809 20.7562 14.3152V14.9809C20.7562 15.2152 20.564 15.4074 20.3296 15.4074ZM20.3062 14.1699C20.2265 14.1699 20.1609 14.2355 20.1609 14.3152V14.9808C20.1609 15.0605 20.2265 15.1261 20.3062 15.1261H20.3297C20.4094 15.1261 20.475 15.0605 20.475 14.9808V14.3152C20.475 14.2355 20.4094 14.1699 20.3297 14.1699H20.3062Z" fill="#CAD4FF"/>
<path d="M21.4688 15.4074H21.4453C21.211 15.4074 21.0188 15.2152 21.0188 14.9809V14.3152C21.0188 14.0809 21.211 13.8887 21.4453 13.8887H21.4688C21.7032 13.8887 21.8953 14.0809 21.8953 14.3152V14.9809C21.8954 15.2152 21.7032 15.4074 21.4688 15.4074ZM21.4454 14.1699C21.3657 14.1699 21.3001 14.2355 21.3001 14.3152V14.9808C21.3001 15.0605 21.3657 15.1261 21.4454 15.1261H21.4688C21.5485 15.1261 21.6141 15.0605 21.6141 14.9808V14.3152C21.6141 14.2355 21.5485 14.1699 21.4688 14.1699H21.4454Z" fill="#CAD4FF"/>
</g>
<defs>
<clipPath id="clip0_1040_7764">
<rect width="24" height="24" fill="white"/>
</clipPath>
</defs>
</svg>
