<svg width="20" height="20" viewBox="0 0 20 20" fill="none" xmlns="http://www.w3.org/2000/svg">
<path d="M14.8616 10.0001C14.4776 10.0001 14.1672 10.3113 14.1672 10.6945V16.2503C14.1672 16.633 13.856 16.9448 13.4727 16.9448H3.75015C3.36677 16.9448 3.05573 16.633 3.05573 16.2503V6.52774C3.05573 6.14511 3.36677 5.83331 3.75015 5.83331H9.30594C9.68997 5.83331 10.0004 5.52217 10.0004 5.13889C10.0004 4.75551 9.68997 4.44434 9.30594 4.44434H3.75015C2.60151 4.44434 1.66675 5.3791 1.66675 6.52774V16.2503C1.66675 17.399 2.60151 18.3337 3.75015 18.3337H13.4727C14.6214 18.3337 15.5561 17.399 15.5561 16.2503V10.6945C15.5561 10.3105 15.2456 10.0001 14.8616 10.0001Z" fill="#12477B"/>
<path d="M8.17805 9.36741C8.12978 9.41589 8.09673 9.47742 8.08293 9.54443L7.59196 12.0002C7.56908 12.114 7.60518 12.2313 7.68708 12.314C7.71941 12.3462 7.75776 12.3717 7.79995 12.3891C7.84215 12.4065 7.88735 12.4154 7.93299 12.4154C7.95513 12.4154 7.97814 12.4133 8.00103 12.4085L10.456 11.9175C10.524 11.9035 10.5858 11.871 10.6338 11.8223L16.1284 6.32762L13.6734 3.87279L8.17805 9.36741ZM17.8256 2.17485C17.1486 1.49771 16.0471 1.49771 15.3706 2.17485L14.4095 3.13591L16.8645 5.59088L17.8256 4.62968C18.1534 4.30262 18.334 3.86644 18.334 3.40256C18.334 2.93867 18.1534 2.50253 17.8256 2.17485Z" fill="#12477B"/>
</svg>
