<svg width="20" height="20" viewBox="0 0 20 20" fill="none" xmlns="http://www.w3.org/2000/svg">
<path d="M14.8615 10.0001C14.4774 10.0001 14.167 10.3113 14.167 10.6945V16.2503C14.167 16.633 13.8559 16.9448 13.4726 16.9448H3.75003C3.36665 16.9448 3.05561 16.633 3.05561 16.2503V6.52774C3.05561 6.14511 3.36665 5.83331 3.75003 5.83331H9.30582C9.68985 5.83331 10.0002 5.52217 10.0002 5.13889C10.0002 4.75551 9.68985 4.44434 9.30582 4.44434H3.75003C2.60139 4.44434 1.66663 5.3791 1.66663 6.52774V16.2503C1.66663 17.399 2.60139 18.3337 3.75003 18.3337H13.4726C14.6213 18.3337 15.556 17.399 15.556 16.2503V10.6945C15.556 10.3105 15.2455 10.0001 14.8615 10.0001Z" fill="#D0DAE5"/>
<path d="M8.17793 9.36741C8.12966 9.41589 8.0966 9.47742 8.08281 9.54443L7.59184 12.0002C7.56896 12.114 7.60506 12.2313 7.68696 12.314C7.71928 12.3462 7.75764 12.3717 7.79983 12.3891C7.84202 12.4065 7.88723 12.4154 7.93287 12.4154C7.955 12.4154 7.97802 12.4133 8.0009 12.4085L10.4559 11.9175C10.5239 11.9035 10.5857 11.871 10.6336 11.8223L16.1283 6.32762L13.6733 3.87279L8.17793 9.36741ZM17.8255 2.17485C17.1485 1.49771 16.047 1.49771 15.3705 2.17485L14.4094 3.13591L16.8644 5.59088L17.8255 4.62968C18.1533 4.30262 18.3339 3.86644 18.3339 3.40256C18.3339 2.93867 18.1533 2.50253 17.8255 2.17485Z" fill="#D0DAE5"/>
</svg>
