<svg width="24" height="24" viewBox="0 0 24 24" fill="none" xmlns="http://www.w3.org/2000/svg">
<g clip-path="url(#clip0_1040_8250)">
<path d="M8.63736 7.625V9.5H14.9011V7.625C14.9011 5.89844 13.4996 4.5 11.7692 4.5C10.0389 4.5 8.63736 5.89844 8.63736 7.625ZM6.13187 9.5V7.625C6.13187 4.51953 8.65694 2 11.7692 2C14.8815 2 17.4066 4.51953 17.4066 7.625V9.5H18.033C19.4149 9.5 20.5385 10.6211 20.5385 12V19.5C20.5385 20.8789 19.4149 22 18.033 22H5.50549C4.12356 22 3 20.8789 3 19.5V12C3 10.6211 4.12356 9.5 5.50549 9.5H6.13187Z" fill="#12477B"/>
</g>
<defs>
<clipPath id="clip0_1040_8250">
<rect width="17.5385" height="20" fill="white" transform="translate(3 2)"/>
</clipPath>
</defs>
</svg>
