<svg width="80" height="80" viewBox="0 0 80 80" fill="none" xmlns="http://www.w3.org/2000/svg">
<path fill-rule="evenodd" clip-rule="evenodd" d="M32.9538 8.5748L42.8189 12.4107L13.3661 23.8632L3.0475 19.8509L32.0478 8.5748C32.3505 8.45684 32.6508 8.45684 32.9538 8.5748ZM63.6731 41.5147C71.9569 41.5147 78.6719 48.2301 78.6719 56.5139C78.6719 64.7976 71.9567 71.5129 63.6731 71.5129C55.3895 71.5129 48.6737 64.7976 48.6737 56.5139C48.6737 48.2301 55.3894 41.5147 63.6731 41.5147ZM69.3523 49.6739L60.4672 58.5589L57.4353 54.7431C56.6895 53.805 55.3241 53.649 54.3859 54.3948C53.4475 55.1406 53.2916 56.5059 54.0375 57.4442L58.4998 63.0592C59.2714 64.1645 60.86 64.3157 61.8214 63.3542L72.4269 52.7486C73.2763 51.8995 73.2763 50.5229 72.4269 49.6739C71.5778 48.8248 70.2014 48.8248 69.3523 49.6739ZM53.3533 16.5068C43.5358 20.3246 33.7183 24.1423 23.9002 27.9592L32.5006 31.3032L61.9538 19.8509L53.3533 16.5068ZM63.6731 21.8559L33.7506 33.4907V68.1487L47.36 62.857C46.5947 60.8904 46.1741 58.7515 46.1741 56.5139C46.1741 46.8495 54.0086 39.015 63.6731 39.015V21.8559ZM31.2506 68.1486V33.4907L22.1814 29.9645V37.2829C22.1814 37.6367 21.7681 37.8276 21.4991 37.5982L16.6858 33.4989L12.1844 34.8987C11.9164 34.9822 11.6472 34.784 11.6472 34.5036V25.8684L1.32812 21.8561V55.6586C1.32812 56.1847 1.63516 56.6332 2.12563 56.8239L31.2506 68.1486Z" fill="url(#paint0_linear_2655_7223)"/>
<defs>
<linearGradient id="paint0_linear_2655_7223" x1="13.6478" y1="68.5011" x2="62.1258" y2="20.0229" gradientUnits="userSpaceOnUse">
<stop stop-color="#E8EDF2"/>
<stop offset="1" stop-color="#2A5A89"/>
</linearGradient>
</defs>
</svg>
