<svg width="80" height="80" viewBox="0 0 80 80" fill="none" xmlns="http://www.w3.org/2000/svg">
<g clip-path="url(#clip0_2397_5260)">
<path fill-rule="evenodd" clip-rule="evenodd" d="M58.7577 61.3906C62.3627 62.323 65.291 63.5066 67.2733 64.8539C68.9435 65.9891 69.881 67.1905 69.881 68.3808C69.881 70.6464 66.7247 72.8317 61.6232 74.5314C56.1155 76.3648 48.4738 77.5 40 77.5C31.5263 77.5 23.8846 76.3656 18.3766 74.5312C13.2755 72.8316 10.1186 70.647 10.1186 68.3806C10.1186 67.1903 11.0561 65.9889 12.7271 64.8538C14.7097 63.5064 17.638 62.3225 21.2427 61.3905C21.5625 61.3076 21.8363 61.1011 22.0038 60.8163C22.1714 60.5316 22.2189 60.1919 22.136 59.8721C22.0532 59.5523 21.8466 59.2785 21.5619 59.111C21.2771 58.9434 20.9375 58.8959 20.6177 58.9787C16.7444 59.9797 13.5522 61.2836 11.3316 62.793C8.95394 64.4086 7.61987 66.3014 7.61987 68.3806C7.61987 71.8411 11.4324 74.8408 17.5957 76.8942C23.3566 78.8125 31.2799 80 40 80C48.7202 80 56.6441 78.8125 62.4049 76.8941C68.5688 74.8406 72.3816 71.8409 72.3816 68.3805C72.3816 66.3013 71.0467 64.4084 68.6691 62.7928C66.4489 61.2834 63.2561 59.9803 59.383 58.9786C59.2239 58.9354 59.0579 58.9241 58.8944 58.9455C58.731 58.9669 58.5734 59.0206 58.4308 59.1033C58.2883 59.1861 58.1635 59.2963 58.0639 59.4276C57.9642 59.5589 57.8916 59.7087 57.8503 59.8682C57.8089 60.0278 57.7996 60.194 57.823 60.3572C57.8463 60.5203 57.9018 60.6773 57.9863 60.8188C58.0707 60.9604 58.1824 61.0838 58.3148 61.1819C58.4473 61.28 58.5979 61.3509 58.758 61.3903L58.7577 61.3906ZM40 14.55C36.7785 14.5503 33.6567 15.6675 31.1666 17.7114C28.6765 19.7553 26.9721 22.5994 26.3438 25.759C25.7156 28.9187 26.2023 32.1985 27.7211 35.0395C29.2399 37.8805 31.6968 40.1071 34.6731 41.3397C37.6495 42.5724 40.9612 42.7349 44.0439 41.7996C47.1267 40.8643 49.7898 38.889 51.5794 36.2103C53.3691 33.5316 54.1746 30.3153 53.8587 27.1093C53.5428 23.9033 52.1251 20.906 49.8471 18.6281C48.5553 17.3333 47.0203 16.3064 45.3305 15.6065C43.6406 14.9067 41.8291 14.5476 40 14.55ZM48.0782 20.3964C49.9468 22.2653 51.1097 24.7243 51.3686 27.3544C51.6276 29.9845 50.9665 32.6231 49.4982 34.8204C48.0298 37.0178 45.845 38.6381 43.3159 39.4052C40.7869 40.1723 38.07 40.0388 35.6284 39.0274C33.1868 38.016 31.1713 36.1892 29.9255 33.8584C28.6797 31.5277 28.2806 28.837 28.7962 26.2449C29.3118 23.6529 30.7102 21.3198 32.7532 19.6432C34.7961 17.9666 37.3572 17.0502 40 17.0502C41.5006 17.048 42.9868 17.3426 44.3731 17.9168C45.7595 18.4911 47.0186 19.3338 48.0782 20.3964ZM39.3203 69.4248C36.6671 67.7753 33.7144 65.3806 30.7861 62.4523C24.8108 56.4778 18.8452 48.2097 15.6066 39.4211C12.3141 30.4903 11.8253 21.017 16.9266 12.7937C18.0589 10.9778 19.3974 9.29898 20.9155 7.79063C26.1094 2.59656 33.0561 0 40 0C46.9439 0 53.8907 2.59656 59.0844 7.79063C60.6025 9.29914 61.9411 10.9782 63.0733 12.7944C68.1738 21.0177 67.6864 30.4909 64.3941 39.4217C61.1549 48.2097 55.1891 56.4778 49.2139 62.453C46.2764 65.3905 43.3146 67.7906 40.6553 69.4409C40.4541 69.5649 40.2218 69.6291 39.9855 69.6263C39.7492 69.6234 39.5185 69.5536 39.3203 69.4248Z" fill="url(#paint0_linear_2397_5260)"/>
</g>
<defs>
<linearGradient id="paint0_linear_2397_5260" x1="-4.99997" y1="40" x2="72.3814" y2="40" gradientUnits="userSpaceOnUse">
<stop stop-color="#E8EDF2"/>
<stop offset="1" stop-color="#2A5A89"/>
</linearGradient>
<clipPath id="clip0_2397_5260">
<rect width="80" height="80" fill="white"/>
</clipPath>
</defs>
</svg>
