<svg width="80" height="80" viewBox="0 0 80 80" fill="none" xmlns="http://www.w3.org/2000/svg">
<path d="M75.896 66.8308H77.5C78.8806 66.8308 80 67.9502 80 69.3308C80 70.7114 78.8806 71.8308 77.5 71.8308H2.5C1.11938 71.8308 0 70.7114 0 69.3308C0 67.9502 1.11938 66.8308 2.5 66.8308H4.10522V34.8331C4.10522 33.4525 5.22461 32.3331 6.60522 32.3331H21.8542C23.2349 32.3331 24.3542 33.4525 24.3542 34.8331V66.8308H29.8761V23.1663C29.8761 21.7856 30.9955 20.6663 32.3761 20.6663H47.6251C49.0057 20.6663 50.1251 21.7856 50.1251 23.1663V66.8308H55.647V11.5C55.647 10.1194 56.7664 9 58.147 9H73.396C74.7766 9 75.896 10.1194 75.896 11.5V66.8308Z" fill="url(#paint0_linear_2655_11876)"/>
<defs>
<linearGradient id="paint0_linear_2655_11876" x1="40" y1="-2.70297" x2="40" y2="71.487" gradientUnits="userSpaceOnUse">
<stop stop-color="#E8EDF2"/>
<stop offset="1" stop-color="#2A5A89"/>
</linearGradient>
</defs>
</svg>
