<svg width="80" height="80" viewBox="0 0 80 80" fill="none" xmlns="http://www.w3.org/2000/svg">
<path d="M78.7291 27.2296C78.4902 21.4689 76.276 16.3377 72.3281 12.3921C68.335 8.41856 62.931 6.18779 57.2978 6.1875C51.6645 6.18721 46.2603 8.41742 42.2667 12.3905L39.9988 14.6558L37.7331 12.3921C33.7397 8.41851 28.3354 6.18787 22.7019 6.18787C17.0684 6.18787 11.6641 8.41851 7.67065 12.3921C3.72221 16.3385 1.50924 21.4702 1.27158 27.2307C1.04971 32.6089 2.63612 38.173 5.73846 42.8975C13.5917 54.8642 24.1269 62.6503 36.3255 71.6658C37.0786 72.2224 37.8382 72.7842 38.6042 73.3514C39.008 73.6506 39.4971 73.8121 39.9996 73.8121C40.5021 73.8121 40.9913 73.6506 41.395 73.3514C42.1613 72.7836 42.9211 72.2215 43.6746 71.6652C55.8721 62.6496 66.4063 54.8636 74.2639 42.8977C77.3664 38.1728 78.9522 32.6089 78.7291 27.2296ZM22.8721 20.8255C21.9756 20.7981 21.0831 20.9542 20.2492 21.2841C19.4152 21.6139 18.6575 22.1107 18.0224 22.7439C14.7005 26.0622 15.6691 31.3524 17.9744 34.8638C18.1434 35.1211 18.26 35.4091 18.3176 35.7115C18.3753 36.0138 18.3728 36.3246 18.3103 36.626C18.2479 36.9274 18.1267 37.2136 17.9536 37.4681C17.7806 37.7227 17.5591 37.9407 17.3018 38.1096C17.0445 38.2786 16.7565 38.3952 16.4541 38.4529C16.1518 38.5105 15.841 38.508 15.5396 38.4456C15.2382 38.3831 14.952 38.2619 14.6975 38.0889C14.4429 37.9158 14.2249 37.6943 14.056 37.4371C10.7416 32.3888 9.53221 24.6 14.7086 19.4292C15.795 18.3534 17.0871 17.5076 18.5078 16.9424C19.9285 16.3773 21.4485 16.1044 22.9771 16.14C23.5961 16.1574 24.1832 16.4191 24.6099 16.8679C25.0367 17.3167 25.2684 17.9162 25.2546 18.5354C25.2407 19.1545 24.9823 19.743 24.5359 20.1723C24.0895 20.6016 23.4913 20.8367 22.8721 20.8263V20.8255Z" fill="url(#paint0_linear_4285_11198)"/>
<defs>
<linearGradient id="paint0_linear_4285_11198" x1="75.6668" y1="52.3327" x2="-33.3332" y2="1.66602" gradientUnits="userSpaceOnUse">
<stop stop-color="#12477B"/>
<stop offset="1" stop-color="#12477B" stop-opacity="0"/>
</linearGradient>
</defs>
</svg>
