<svg width="80" height="80" viewBox="0 0 80 80" fill="none" xmlns="http://www.w3.org/2000/svg">
<path d="M32.5 77.5C36.6421 77.5 40 74.1421 40 70C40 65.8579 36.6421 62.5 32.5 62.5C28.3579 62.5 25 65.8579 25 70C25 74.1421 28.3579 77.5 32.5 77.5Z" fill="url(#paint0_linear_2397_3391)"/>
<path d="M65 77.5C69.1421 77.5 72.5 74.1421 72.5 70C72.5 65.8579 69.1421 62.5 65 62.5C60.8579 62.5 57.5 65.8579 57.5 70C57.5 74.1421 60.8579 77.5 65 77.5Z" fill="url(#paint1_linear_2397_3391)"/>
<path fill-rule="evenodd" clip-rule="evenodd" d="M15.3125 9.41482L23.63 51.4398C24.32 54.9598 27.405 57.4998 30.9925 57.4998H64.0075C67.595 57.4998 70.68 54.9598 71.37 51.4398L76.2875 26.2998C76.7175 24.0998 76.1425 21.8248 74.7175 20.0923C73.2925 18.3623 71.1675 17.3598 68.9275 17.3598H21.995L20.215 8.43732C19.5075 4.89732 16.38 2.36232 12.77 2.40482C9.31746 2.44732 4.96996 2.49982 4.96996 2.49982C3.58996 2.51732 2.48246 3.64982 2.49996 5.02982C2.51746 6.40982 3.64996 7.51732 5.02996 7.49982C5.02996 7.49982 9.37996 7.44732 12.83 7.40482C14.0325 7.38982 15.0775 8.23482 15.3125 9.41482ZM45 29.9298V44.9298C45 46.3098 46.12 47.4298 47.5 47.4298C48.88 47.4298 50 46.3098 50 44.9298V29.9298C50 28.5498 48.88 27.4298 47.5 27.4298C46.12 27.4298 45 28.5498 45 29.9298ZM35 29.9298V44.9298C35 46.3098 36.12 47.4298 37.5 47.4298C38.88 47.4298 40 46.3098 40 44.9298V29.9298C40 28.5498 38.88 27.4298 37.5 27.4298C36.12 27.4298 35 28.5498 35 29.9298ZM55 29.9298V44.9298C55 46.3098 56.12 47.4298 57.5 47.4298C58.88 47.4298 60 46.3098 60 44.9298V29.9298C60 28.5498 58.88 27.4298 57.5 27.4298C56.12 27.4298 55 28.5498 55 29.9298Z" fill="url(#paint2_linear_2397_3391)"/>
<defs>
<linearGradient id="paint0_linear_2397_3391" x1="0" y1="40" x2="80" y2="40" gradientUnits="userSpaceOnUse">
<stop stop-color="#2A5A88"/>
<stop offset="1" stop-color="#7896B4"/>
</linearGradient>
<linearGradient id="paint1_linear_2397_3391" x1="0" y1="40" x2="80" y2="40" gradientUnits="userSpaceOnUse">
<stop stop-color="#466F98"/>
<stop offset="1" stop-color="#AEC0D2"/>
</linearGradient>
<linearGradient id="paint2_linear_2397_3391" x1="-3.96373e-05" y1="39.9998" x2="98.5" y2="41.9999" gradientUnits="userSpaceOnUse">
<stop stop-color="#245585"/>
<stop offset="1" stop-color="white"/>
</linearGradient>
</defs>
</svg>
