<svg width="80" height="80" viewBox="0 0 80 80" fill="none" xmlns="http://www.w3.org/2000/svg">
<path d="M29.1089 67.9014H50.8901V69.1092C50.8901 75.1232 46.0136 79.9998 39.9995 79.9998C33.9854 79.9998 29.1089 75.1232 29.1089 69.1092V67.9014Z" fill="url(#paint0_linear_2655_12621)"/>
<path d="M73.3243 56.3531L67.3587 50.3891C65.8931 48.9234 65.0696 46.9359 65.0696 44.8641V34.0641C65.0696 22.05 56.4431 12.0516 45.0462 9.92188V5.04844C45.0462 2.26094 42.7853 0 39.9978 0C37.2103 0 34.9493 2.26094 34.9493 5.04844V9.92188C23.554 12.0516 14.9274 22.05 14.9274 34.0641V44.8641C14.9274 46.9359 14.104 48.9234 12.6399 50.3891L6.67432 56.3547C5.74932 57.2797 5.229 58.5344 5.229 59.8438C5.229 62.5687 7.43838 64.7781 10.1634 64.7781H69.8368C72.5618 64.7781 74.7712 62.5687 74.7712 59.8438C74.7712 58.5344 74.2509 57.2797 73.3259 56.3547L73.3243 56.3531Z" fill="url(#paint1_linear_2655_12621)"/>
<defs>
<linearGradient id="paint0_linear_2655_12621" x1="30.4702" y1="65.0769" x2="42.3374" y2="81.315" gradientUnits="userSpaceOnUse">
<stop stop-color="#E8EDF2"/>
<stop offset="1" stop-color="#2A5A89"/>
</linearGradient>
<linearGradient id="paint1_linear_2655_12621" x1="9.57539" y1="-15.1228" x2="74.9087" y2="38.1848" gradientUnits="userSpaceOnUse">
<stop stop-color="#E8EDF2"/>
<stop offset="1" stop-color="#2A5A89"/>
</linearGradient>
</defs>
</svg>
