<svg width="20" height="20" viewBox="0 0 20 20" fill="none" xmlns="http://www.w3.org/2000/svg">
<g clip-path="url(#clip0_1449_13336)">
<path d="M18.3932 3.30807C16.218 1.1335 12.6795 1.1335 10.5049 3.30807L9.99983 3.81286L9.49504 3.30807C7.32046 1.1332 3.78163 1.1332 1.60706 3.30807C-0.523361 5.43849 -0.537195 8.81544 1.57498 11.1634C3.50142 13.3041 9.18304 17.929 9.4241 18.1248C9.58775 18.2578 9.78467 18.3226 9.9804 18.3226C9.98688 18.3226 9.99335 18.3226 9.99953 18.3223C10.202 18.3317 10.406 18.2622 10.575 18.1248C10.816 17.929 16.4982 13.3041 18.4253 11.1631C20.5371 8.81544 20.5233 5.43849 18.3932 3.30807ZM17.1125 9.9819C15.6105 11.6505 11.4818 15.0919 9.99953 16.3131C8.51724 15.0922 4.38944 11.6511 2.88773 9.98219C1.41427 8.3445 1.40044 6.01216 2.85564 4.55695C3.59885 3.81404 4.57488 3.44229 5.5509 3.44229C6.52693 3.44229 7.50295 3.81374 8.24616 4.55695L9.3564 5.66719C9.48856 5.79935 9.65516 5.87823 9.82999 5.9059C10.1137 5.96683 10.4216 5.88765 10.6424 5.66749L11.7532 4.55695C13.2399 3.07083 15.6582 3.07113 17.144 4.55695C18.5992 6.01216 18.5854 8.34449 17.1125 9.9819Z" fill="#12477B"/>
<path d="M17.1125 9.9819C15.6105 11.6505 11.4818 15.0919 9.99953 16.3131C8.51724 15.0922 4.38944 11.6511 2.88773 9.98219C1.41427 8.3445 1.40044 6.01216 2.85564 4.55695C3.59885 3.81404 4.57488 3.44229 5.5509 3.44229C6.52693 3.44229 7.50295 3.81374 8.24616 4.55695L9.3564 5.66719C9.48856 5.79935 9.65516 5.87823 9.82999 5.9059C10.1137 5.96683 10.4216 5.88765 10.6424 5.66749L11.7532 4.55695C13.2399 3.07083 15.6582 3.07113 17.144 4.55695C18.5992 6.01216 18.5854 8.34449 17.1125 9.9819Z" fill="#12477B"/>
</g>
<defs>
<clipPath id="clip0_1449_13336">
<rect width="20" height="20" fill="white"/>
</clipPath>
</defs>
</svg>
