<svg width="20" height="20" viewBox="0 0 20 20" fill="none" xmlns="http://www.w3.org/2000/svg">
<g clip-path="url(#clip0_2068_12983)">
<path d="M18.3932 3.30791C16.218 1.13334 12.6795 1.13334 10.5049 3.30791L9.99983 3.8127L9.49503 3.30791C7.32046 1.13304 3.78163 1.13304 1.60706 3.30791C-0.523361 5.43833 -0.537195 8.81527 1.57498 11.1632C3.50142 13.3039 9.18304 17.9289 9.4241 18.1246C9.58775 18.2576 9.78466 18.3224 9.9804 18.3224C9.98688 18.3224 9.99335 18.3224 9.99953 18.3221C10.202 18.3315 10.406 18.2621 10.575 18.1246C10.816 17.9289 16.4982 13.3039 18.4253 11.1629C20.5371 8.81527 20.5233 5.43833 18.3932 3.30791ZM17.1125 9.98174C15.6105 11.6503 11.4818 15.0917 9.99953 16.313C8.51724 15.092 4.38944 11.6509 2.88773 9.98203C1.41427 8.34433 1.40044 6.01199 2.85564 4.55679C3.59885 3.81388 4.57487 3.44213 5.5509 3.44213C6.52693 3.44213 7.50295 3.81358 8.24616 4.55679L9.3564 5.66703C9.48856 5.79919 9.65516 5.87807 9.82999 5.90574C10.1137 5.96667 10.4216 5.88749 10.6424 5.66732L11.7532 4.55679C13.2399 3.07067 15.6582 3.07097 17.144 4.55679C18.5992 6.01199 18.5854 8.34433 17.1125 9.98174Z" fill="#12477B"/>
<path d="M17.1125 9.98174C15.6105 11.6503 11.4818 15.0917 9.99953 16.313C8.51724 15.092 4.38944 11.6509 2.88773 9.98203C1.41427 8.34433 1.40044 6.01199 2.85564 4.55679C3.59885 3.81388 4.57487 3.44213 5.5509 3.44213C6.52693 3.44213 7.50295 3.81358 8.24616 4.55679L9.3564 5.66703C9.48856 5.79919 9.65516 5.87807 9.82999 5.90574C10.1137 5.96667 10.4216 5.88749 10.6424 5.66732L11.7532 4.55679C13.2399 3.07067 15.6582 3.07097 17.144 4.55679C18.5992 6.01199 18.5854 8.34433 17.1125 9.98174Z" fill="#12477B"/>
</g>
<defs>
<clipPath id="clip0_2068_12983">
<rect width="20" height="20" fill="white"/>
</clipPath>
</defs>
</svg>
