<svg width="20" height="20" viewBox="0 0 20 20" fill="none" xmlns="http://www.w3.org/2000/svg">
<g clip-path="url(#clip0_1677_8309)">
<path d="M19.375 3.52574H9.85918C9.57238 4.83117 8.4066 5.81121 7.01629 5.81121C5.62598 5.81121 4.46019 4.83121 4.1734 3.52574H0.625C0.279844 3.52574 0 3.2459 0 2.90074C0 2.55558 0.279844 2.27574 0.625 2.27574H4.17371C4.46105 0.970975 5.62844 -0.00968933 7.01629 -0.00968933C8.40488 -0.00968933 9.57172 0.970819 9.85895 2.27574H19.375C19.7202 2.27574 20 2.55558 20 2.90074C20 3.2459 19.7202 3.52574 19.375 3.52574ZM8.67668 2.90238C8.67668 2.90015 8.67664 2.89789 8.67664 2.89566C8.67391 1.98289 7.9291 1.24035 7.01629 1.24035C6.10477 1.24035 5.35992 1.98187 5.35598 2.89422L5.35586 2.9034C5.3573 3.81773 6.1016 4.56125 7.01629 4.56125C7.93059 4.56125 8.67465 3.81847 8.67672 2.90469L8.67668 2.90238ZM0.625 16.4742H4.17371C4.46109 15.1695 5.62844 14.1888 7.01629 14.1888C8.40488 14.1888 9.57172 15.1693 9.85895 16.4742H19.375C19.7202 16.4742 20 16.754 20 17.0992C20 17.4444 19.7202 17.7242 19.375 17.7242H9.85918C9.57238 19.0296 8.4066 20.0097 7.01629 20.0097C5.62598 20.0097 4.46019 19.0296 4.1734 17.7242H0.625C0.279844 17.7242 0 17.4444 0 17.0992C0 16.754 0.279844 16.4742 0.625 16.4742ZM7.01629 18.7597C7.93059 18.7597 8.67465 18.0169 8.67672 17.1031L8.67668 17.1009C8.67668 17.0986 8.67664 17.0964 8.67664 17.0941C8.67391 16.1814 7.9291 15.4388 7.01629 15.4388C6.10477 15.4388 5.35992 16.1803 5.35598 17.0926L5.35586 17.1018C5.35719 18.0162 6.10152 18.7597 7.01629 18.7597ZM0.625 9.375H10.1408C10.4276 8.06957 11.5934 7.08957 12.9837 7.08957C14.374 7.08957 15.5398 8.06957 15.8266 9.375H19.375C19.7202 9.375 20 9.65484 20 10C20 10.3452 19.7202 10.625 19.375 10.625H15.8263C15.5389 11.9297 14.3716 12.9104 12.9837 12.9104C11.5951 12.9104 10.4283 11.9299 10.1411 10.625H0.625C0.279844 10.625 0 10.3452 0 10C0 9.65484 0.279844 9.375 0.625 9.375ZM11.3233 9.99836C11.3233 10.0006 11.3234 10.0028 11.3234 10.0051C11.3261 10.9178 12.0709 11.6604 12.9837 11.6604C13.8952 11.6604 14.6401 10.9189 14.644 10.0066L14.6441 9.99742C14.6428 9.08297 13.8984 8.33957 12.9837 8.33957C12.0694 8.33957 11.3254 9.0823 11.3233 9.99613L11.3233 9.99836Z" fill="#1A1A1A"/>
</g>
<defs>
<clipPath id="clip0_1677_8309">
<rect width="20" height="20" fill="white" transform="matrix(-1 0 0 1 20 0)"/>
</clipPath>
</defs>
</svg>
