<svg width="32" height="32" viewBox="0 0 32 32" fill="none" xmlns="http://www.w3.org/2000/svg">
<g clip-path="url(#clip0_1022_10560)">
<path d="M17.371 22.875C18.0614 22.875 18.621 22.3154 18.621 21.625C18.621 20.9346 18.0614 20.375 17.371 20.375C16.6807 20.375 16.121 20.9346 16.121 21.625C16.121 22.3154 16.6807 22.875 17.371 22.875Z" fill="white"/>
<path d="M21.5585 29.4999H5.99603C4.61753 29.4999 3.49603 28.3784 3.49603 26.9999V16.7499C3.49603 15.3714 4.61753 14.2499 5.99603 14.2499H23.996C24.2807 14.2499 24.5065 14.2751 24.6865 14.3266C25.3501 14.5168 26.0422 14.1329 26.2324 13.4692C26.4225 12.8056 26.0387 12.1135 25.375 11.9233C24.968 11.8067 24.5169 11.75 23.996 11.75H22.4937V7.34163C22.4937 3.29344 19.1292 0 14.9937 0C10.8582 0 7.49372 3.29344 7.49372 7.34163V11.75H5.99603C3.23903 11.75 0.996033 13.993 0.996033 16.75V27C0.996033 29.757 3.23903 32 5.99603 32H21.5585C22.2489 32 22.8085 31.4404 22.8085 30.75C22.8085 30.0596 22.2489 29.5 21.5585 29.4999ZM9.99372 7.34163C9.99372 4.67194 12.2367 2.5 14.9937 2.5C17.7507 2.5 19.9937 4.67194 19.9937 7.34163V11.75H9.99372V7.34163Z" fill="white"/>
<path d="M12.6835 22.875C13.3739 22.875 13.9335 22.3154 13.9335 21.625C13.9335 20.9346 13.3739 20.375 12.6835 20.375C11.9932 20.375 11.4335 20.9346 11.4335 21.625C11.4335 22.3154 11.9932 22.875 12.6835 22.875Z" fill="white"/>
<path d="M31.0029 20.7006C30.9755 18.2763 28.9947 16.3125 26.5641 16.3125C24.1164 16.3125 22.125 18.3039 22.125 20.7516C22.125 21.4419 22.6846 22.0016 23.375 22.0016C24.0654 22.0016 24.625 21.4419 24.625 20.7516C24.625 19.6824 25.4949 18.8125 26.5641 18.8125C27.6334 18.8125 28.5032 19.6824 28.5032 20.7516C28.5032 20.7629 28.5033 20.7742 28.5036 20.7855C28.4908 21.5509 28.0309 22.2362 27.3246 22.5377C26.1033 23.0592 25.3141 24.2638 25.3141 25.6065V26.6875C25.3141 27.3779 25.8738 27.9375 26.5641 27.9375C27.2545 27.9375 27.8141 27.3779 27.8141 26.6875V25.6065C27.8141 25.2666 28.0074 24.9646 28.3063 24.8369C29.9455 24.1372 31.0044 22.5335 31.0039 20.7513C31.0039 20.7343 31.0036 20.7174 31.0029 20.7006Z" fill="white"/>
<path d="M26.5585 32C27.2489 32 27.8085 31.4404 27.8085 30.75C27.8085 30.0596 27.2489 29.5 26.5585 29.5C25.8682 29.5 25.3085 30.0596 25.3085 30.75C25.3085 31.4404 25.8682 32 26.5585 32Z" fill="white"/>
<path d="M7.99603 22.875C8.68639 22.875 9.24603 22.3154 9.24603 21.625C9.24603 20.9346 8.68639 20.375 7.99603 20.375C7.30568 20.375 6.74603 20.9346 6.74603 21.625C6.74603 22.3154 7.30568 22.875 7.99603 22.875Z" fill="white"/>
</g>
<defs>
<clipPath id="clip0_1022_10560">
<rect width="32" height="32" fill="white"/>
</clipPath>
</defs>
</svg>
