<svg width="20" height="20" viewBox="0 0 20 20" fill="none" xmlns="http://www.w3.org/2000/svg">
<path d="M3.60468 16.3953L16.3961 3.6043L16.3988 3.60117C16.4681 3.53249 16.5502 3.47811 16.6404 3.44115C16.7307 3.4042 16.8274 3.38538 16.9249 3.38578C17.0224 3.38618 17.1189 3.40578 17.2089 3.44348C17.2989 3.48117 17.3805 3.53622 17.4492 3.60547C17.5179 3.67472 17.5723 3.75683 17.6092 3.84709C17.6462 3.93736 17.665 4.03402 17.6646 4.13156C17.6638 4.32854 17.5848 4.51714 17.4449 4.65586L16.325 5.77578C17.6832 6.70596 18.8522 7.88574 19.7699 9.25235C19.9198 9.47361 19.9999 9.73471 19.9999 10.002C19.9999 10.2692 19.9198 10.5303 19.7699 10.7516C17.4273 14.2188 13.7137 16.25 9.99999 16.2246C8.79707 16.229 7.60217 16.0287 6.4664 15.6324L4.65351 17.4453C4.51383 17.5805 4.3267 17.6555 4.13233 17.6541C3.93796 17.6528 3.75187 17.5753 3.61404 17.4382C3.47622 17.3012 3.39766 17.1155 3.39525 16.9212C3.39284 16.7268 3.46678 16.5393 3.60116 16.3988L3.60468 16.3953ZM9.99999 14.2086C10.7036 14.2083 11.3959 14.0317 12.0137 13.695C12.6314 13.3582 13.1549 12.872 13.5363 12.2807C13.9177 11.6895 14.1449 11.012 14.197 10.3104C14.2492 9.60872 14.1246 8.90519 13.8348 8.26406L12.6648 9.43399C12.7591 9.87805 12.7409 10.3386 12.6119 10.7738C12.4829 11.2091 12.2472 11.6052 11.9262 11.9262C11.6052 12.2472 11.2091 12.4829 10.7738 12.6119C10.3386 12.7409 9.87803 12.7591 9.43398 12.6648L8.26405 13.8348C8.80933 14.082 9.40128 14.2095 9.99999 14.2086Z" fill="#CCCCCC"/>
<path d="M0.230055 9.25038C2.57263 5.78124 6.2863 3.74999 9.99998 3.77538C11.2029 3.77102 12.3978 3.97128 13.5336 4.36757L11.7367 6.16444C10.957 5.81159 10.0882 5.70474 9.24625 5.85814C8.40426 6.01154 7.62902 6.41791 7.02385 7.02308C6.41868 7.62826 6.01231 8.4035 5.85891 9.24548C5.7055 10.0875 5.81235 10.9562 6.16521 11.7359L3.67537 14.2258C2.31697 13.2957 1.14778 12.1159 0.230055 10.7492C0.0802755 10.528 0.000221252 10.267 0.000221252 9.9998C0.000221252 9.73264 0.0802755 9.47161 0.230055 9.25038Z" fill="#CCCCCC"/>
<path d="M10 7.27579C10.1902 7.27581 10.38 7.29571 10.566 7.33516L7.33518 10.5656C7.25093 10.1687 7.25642 9.758 7.35122 9.36348C7.44603 8.96895 7.62777 8.60059 7.88316 8.2853C8.13856 7.97 8.46116 7.71574 8.8274 7.54108C9.19364 7.36643 9.59427 7.27579 10 7.27579Z" fill="#CCCCCC"/>
</svg>
