<svg width="25" height="24" viewBox="0 0 25 24" fill="none" xmlns="http://www.w3.org/2000/svg">
<path d="M18.8142 22H5.76384C4.53204 22 3.5 21.0012 3.5 19.7362V9.64877C3.5 8.98294 3.79963 8.3504 4.33229 7.9176L10.8575 2.52434C11.6898 1.82522 12.8883 1.82522 13.7206 2.52434L20.2457 7.88431C20.7784 8.3171 21.078 8.94965 21.078 9.61548V19.7029C21.078 21.0012 20.046 22 18.8142 22ZM12.289 3.35664C12.0893 3.35664 11.8562 3.42322 11.6898 3.55639L5.16459 8.94965C4.96484 9.1161 4.83167 9.38244 4.83167 9.64877V19.7362C4.83167 20.2355 5.23117 20.6683 5.76384 20.6683H18.8142C19.3136 20.6683 19.7464 20.2688 19.7464 19.7362V9.64877C19.7464 9.38244 19.6132 9.1161 19.4134 8.94965L12.8883 3.55639C12.7218 3.42322 12.4888 3.35664 12.289 3.35664Z" fill="#999999"/>
<path d="M16.284 19.0699H8.29401C7.9278 19.0699 7.62817 18.7703 7.62817 18.4041C7.62817 18.0379 7.9278 17.7383 8.29401 17.7383H16.284C16.6502 17.7383 16.9499 18.0379 16.9499 18.4041C16.9499 18.7703 16.6502 19.0699 16.284 19.0699Z" fill="#999999"/>
</svg>
