<svg width="24" height="24" viewBox="0 0 24 24" fill="none" xmlns="http://www.w3.org/2000/svg">
<path d="M21.4609 10.699C21.4603 10.6986 21.4599 10.698 21.4594 10.6975L13.301 2.5394C12.9532 2.1915 12.4909 2 11.9991 2C11.5073 2 11.045 2.1915 10.6971 2.5394L2.54293 10.6934C2.54018 10.6961 2.53728 10.699 2.53469 10.7018C1.82058 11.42 1.8218 12.5853 2.5382 13.3017C2.8655 13.6292 3.29763 13.8187 3.75982 13.8387C3.77874 13.8405 3.79766 13.8414 3.81673 13.8414H4.14174V19.8452C4.14174 21.0334 5.10854 22 6.29674 22H9.48858C9.81221 22 10.0745 21.7375 10.0745 21.4141V16.707C10.0745 16.1649 10.5156 15.7239 11.0578 15.7239H12.9404C13.4826 15.7239 13.9235 16.1649 13.9235 16.707V21.4141C13.9235 21.7375 14.1858 22 14.5095 22H17.7013C18.8897 22 19.8563 21.0334 19.8563 19.8452V13.8414H20.1578C20.6495 13.8414 21.1118 13.6499 21.4599 13.3019C22.177 12.5844 22.1773 11.417 21.4609 10.699ZM20.6312 12.4733C20.5047 12.5998 20.3365 12.6696 20.1578 12.6696H19.2704C18.9467 12.6696 18.6844 12.9319 18.6844 13.2555V19.8452C18.6844 20.3871 18.2435 20.8281 17.7013 20.8281H15.0954V16.707C15.0954 15.5188 14.1288 14.552 12.9404 14.552H11.0578C9.86943 14.552 8.90264 15.5188 8.90264 16.707V20.8281H6.29674C5.75475 20.8281 5.31362 20.3871 5.31362 19.8452V13.2555C5.31362 12.9319 5.05132 12.6696 4.72768 12.6696H3.85549C3.84633 12.6689 3.83733 12.6685 3.82802 12.6683C3.65346 12.6653 3.48974 12.596 3.36706 12.4732C3.10613 12.2122 3.10613 11.7876 3.36706 11.5265C3.36721 11.5265 3.36721 11.5264 3.36736 11.5262L3.36782 11.5258L11.5259 3.36795C11.6523 3.24146 11.8203 3.17188 11.9991 3.17188C12.1778 3.17188 12.3458 3.24146 12.4723 3.36795L20.6286 11.5241C20.6298 11.5253 20.6312 11.5265 20.6324 11.5277C20.8919 11.7891 20.8915 12.2129 20.6312 12.4733Z" fill="#12477B"/>
</svg>
