<svg width="25" height="24" viewBox="0 0 25 24" fill="none" xmlns="http://www.w3.org/2000/svg">
<path d="M19.8501 23.25H5.1501C3.7626 23.25 2.6001 22.125 2.6001 20.7V9.33749C2.6001 8.58749 2.9376 7.87499 3.5376 7.38749L10.8876 1.31249C11.8251 0.524988 13.1751 0.524988 14.1126 1.31249L21.4626 7.34999C22.0626 7.83749 22.4001 8.54999 22.4001 9.29999V20.6625C22.4001 22.125 21.2376 23.25 19.8501 23.25ZM12.5001 2.24999C12.2751 2.24999 12.0126 2.32499 11.8251 2.47499L4.4751 8.54999C4.2501 8.73749 4.1001 9.03749 4.1001 9.33749V20.7C4.1001 21.2625 4.5501 21.75 5.1501 21.75H19.8501C20.4126 21.75 20.9001 21.3 20.9001 20.7V9.33749C20.9001 9.03749 20.7501 8.73749 20.5251 8.54999L13.1751 2.47499C12.9876 2.32499 12.7251 2.24999 12.5001 2.24999Z" fill="#12477B"/>
<path d="M12.5001 2.24999C12.2751 2.24999 12.0126 2.32499 11.8251 2.47499L4.4751 8.54999C4.2501 8.73749 4.1001 9.03749 4.1001 9.33749V20.7C4.1001 21.2625 4.5501 21.75 5.1501 21.75H19.8501C20.4126 21.75 20.9001 21.3 20.9001 20.7V9.33749C20.9001 9.03749 20.7501 8.73749 20.5251 8.54999L13.1751 2.47499C12.9876 2.32499 12.7251 2.24999 12.5001 2.24999Z" fill="#E8EDF2"/>
<path d="M17 19.95H8C7.5875 19.95 7.25 19.6125 7.25 19.2C7.25 18.7875 7.5875 18.45 8 18.45H17C17.4125 18.45 17.75 18.7875 17.75 19.2C17.75 19.6125 17.4125 19.95 17 19.95Z" fill="#12477B"/>
</svg>
