<svg width="20" height="20" viewBox="0 0 20 20" fill="none" xmlns="http://www.w3.org/2000/svg">
<g clip-path="url(#clip0_2552_2187)">
<path d="M12.0852 6.00807L12.0852 6.00792C12.0952 5.75207 12.0535 5.49683 11.9625 5.25748C11.8716 5.01814 11.7332 4.79963 11.5558 4.61505L11.1953 4.96157L11.5558 4.61504C11.3783 4.43046 11.1654 4.28361 10.9298 4.1833C10.6943 4.08298 10.4408 4.03127 10.1848 4.03125H10.1848H9.81523H9.8152C9.55915 4.03127 9.30575 4.08298 9.07017 4.1833C8.83459 4.28361 8.62169 4.43046 8.44424 4.61504L8.80468 4.96157L8.44423 4.61505C8.26678 4.79963 8.12842 5.01814 8.03745 5.25748C7.94648 5.49683 7.90478 5.75207 7.91484 6.00792L7.91484 6.00807L8.09961 10.6737L8.09962 10.6738C8.11919 11.1647 8.32797 11.629 8.68221 11.9694C8.8421 12.1231 9.02602 12.2461 9.22489 12.3349C9.01522 12.4286 8.8223 12.5604 8.65677 12.7259C8.30053 13.0822 8.10039 13.5653 8.10039 14.0691C8.10039 14.573 8.30053 15.0561 8.65677 15.4124C9.01302 15.7686 9.49619 15.9688 10 15.9688C10.5038 15.9688 10.987 15.7686 11.3432 15.4124C11.6995 15.0561 11.8996 14.5729 11.8996 14.0691C11.8996 13.5653 11.6995 13.0822 11.3432 12.7259C11.1777 12.5604 10.9848 12.4286 10.7751 12.3349C10.974 12.2461 11.1579 12.1231 11.3178 11.9694C11.672 11.629 11.8808 11.1647 11.9004 10.6738L11.9004 10.6737L12.0852 6.00807ZM0.5 10C0.5 4.75349 4.75349 0.5 10 0.5C15.2465 0.5 19.5 4.75349 19.5 10C19.5 15.2465 15.2465 19.5 10 19.5C4.75349 19.5 0.5 15.2465 0.5 10Z" fill="#12477B" stroke="#12477B"/>
</g>
<defs>
<clipPath id="clip0_2552_2187">
<rect width="20" height="20" fill="white"/>
</clipPath>
</defs>
</svg>
