<svg width="20" height="21" viewBox="0 0 20 21" fill="none" xmlns="http://www.w3.org/2000/svg">
<g clip-path="url(#clip0_1040_7882)">
<path d="M10 0.114258C6.00606 0.114258 2.75676 3.36355 2.75676 7.35746C2.75676 12.314 9.23875 19.5905 9.51473 19.8979C9.77395 20.1866 10.2265 20.1861 10.4853 19.8979C10.7613 19.5905 17.2432 12.314 17.2432 7.35746C17.2432 3.36355 13.9939 0.114258 10 0.114258ZM10 18.463C7.81848 15.8717 4.06113 10.7593 4.06113 7.35754C4.06113 4.08277 6.72528 1.41863 10 1.41863C13.2747 1.41863 15.9389 4.08277 15.9389 7.3575C15.9388 10.7594 12.1821 15.8709 10 18.463Z" fill="#12477B"/>
<path d="M9.99999 3.71289C7.99054 3.71289 6.35577 5.3477 6.35577 7.35715C6.35577 9.3666 7.99058 11.0014 9.99999 11.0014C12.0094 11.0014 13.6442 9.3666 13.6442 7.35715C13.6442 5.3477 12.0094 3.71289 9.99999 3.71289ZM9.99999 9.69703C8.70976 9.69703 7.66015 8.64738 7.66015 7.35715C7.66015 6.06691 8.7098 5.01727 9.99999 5.01727C11.2902 5.01727 12.3398 6.06691 12.3398 7.35715C12.3398 8.64738 11.2902 9.69703 9.99999 9.69703Z" fill="#12477B"/>
</g>
<defs>
<clipPath id="clip0_1040_7882">
<rect width="20" height="20" fill="white" transform="translate(0 0.114258)"/>
</clipPath>
</defs>
</svg>
