<svg width="20" height="20" viewBox="0 0 20 20" fill="none" xmlns="http://www.w3.org/2000/svg">
<path d="M10.0001 0C6.00613 0 2.75684 3.2493 2.75684 7.2432C2.75684 12.1998 9.23883 19.4763 9.5148 19.7836C9.77402 20.0723 10.2266 20.0718 10.4854 19.7836C10.7613 19.4763 17.2433 12.1998 17.2433 7.2432C17.2432 3.2493 13.994 0 10.0001 0ZM10.0001 18.3488C7.81855 15.7575 4.06121 10.645 4.06121 7.24328C4.06121 3.96852 6.72535 1.30438 10.0001 1.30438C13.2748 1.30438 15.9389 3.96852 15.9389 7.24324C15.9389 10.6451 12.1821 15.7566 10.0001 18.3488Z" fill="#1A1A1A"/>
<path d="M9.99993 3.59863C7.99048 3.59863 6.35571 5.23344 6.35571 7.24289C6.35571 9.25234 7.99052 10.8871 9.99993 10.8871C12.0093 10.8871 13.6441 9.25234 13.6441 7.24289C13.6441 5.23344 12.0093 3.59863 9.99993 3.59863ZM9.99993 9.58277C8.7097 9.58277 7.66009 8.53312 7.66009 7.24289C7.66009 5.95266 8.70974 4.90301 9.99993 4.90301C11.2901 4.90301 12.3398 5.95266 12.3398 7.24289C12.3398 8.53312 11.2901 9.58277 9.99993 9.58277Z" fill="#1A1A1A"/>
</svg>
