<svg width="32" height="32" viewBox="0 0 32 32" fill="none" xmlns="http://www.w3.org/2000/svg">
<g clip-path="url(#clip0_1022_10554)">
<path d="M17.3711 22.875C18.0614 22.875 18.6211 22.3154 18.6211 21.625C18.6211 20.9346 18.0614 20.375 17.3711 20.375C16.6807 20.375 16.1211 20.9346 16.1211 21.625C16.1211 22.3154 16.6807 22.875 17.3711 22.875Z" fill="#12477B"/>
<path d="M21.5586 29.4999H5.99606C4.61756 29.4999 3.49606 28.3784 3.49606 26.9999V16.7499C3.49606 15.3714 4.61756 14.2499 5.99606 14.2499H23.9961C24.2807 14.2499 24.5065 14.2751 24.6865 14.3266C25.3501 14.5168 26.0422 14.1329 26.2324 13.4692C26.4226 12.8056 26.0387 12.1135 25.3751 11.9233C24.968 11.8067 24.5169 11.75 23.9961 11.75H22.4937V7.34163C22.4937 3.29344 19.1292 0 14.9938 0C10.8583 0 7.49375 3.29344 7.49375 7.34163V11.75H5.99606C3.23906 11.75 0.996063 13.993 0.996063 16.75V27C0.996063 29.757 3.23906 32 5.99606 32H21.5586C22.2489 32 22.8086 31.4404 22.8086 30.75C22.8086 30.0596 22.2489 29.5 21.5586 29.4999ZM9.99375 7.34163C9.99375 4.67194 12.2368 2.5 14.9938 2.5C17.7508 2.5 19.9937 4.67194 19.9937 7.34163V11.75H9.99375V7.34163Z" fill="#12477B"/>
<path d="M12.6836 22.875C13.3739 22.875 13.9336 22.3154 13.9336 21.625C13.9336 20.9346 13.3739 20.375 12.6836 20.375C11.9932 20.375 11.4336 20.9346 11.4336 21.625C11.4336 22.3154 11.9932 22.875 12.6836 22.875Z" fill="#12477B"/>
<path d="M7.99606 22.875C8.68642 22.875 9.24606 22.3154 9.24606 21.625C9.24606 20.9346 8.68642 20.375 7.99606 20.375C7.30571 20.375 6.74606 20.9346 6.74606 21.625C6.74606 22.3154 7.30571 22.875 7.99606 22.875Z" fill="#12477B"/>
<rect x="20" y="16" width="12" height="12" rx="6" fill="#12477B"/>
<path fill-rule="evenodd" clip-rule="evenodd" d="M28.8779 19.9831C28.9626 20.0678 29.0102 20.1827 29.0102 20.3025C29.0102 20.4223 28.9626 20.5372 28.8779 20.6219L25.4917 24.0081C25.447 24.0529 25.3938 24.0884 25.3354 24.1126C25.2769 24.1369 25.2142 24.1493 25.1509 24.1493C25.0876 24.1493 25.025 24.1369 24.9665 24.1126C24.908 24.0884 24.8549 24.0529 24.8101 24.0081L23.1277 22.326C23.0846 22.2843 23.0502 22.2345 23.0265 22.1794C23.0028 22.1243 22.9903 22.065 22.9898 22.005C22.9893 21.945 23.0007 21.8855 23.0234 21.83C23.0462 21.7745 23.0797 21.724 23.1221 21.6816C23.1645 21.6392 23.215 21.6056 23.2705 21.5829C23.326 21.5602 23.3855 21.5488 23.4455 21.5493C23.5055 21.5498 23.5648 21.5623 23.6199 21.586C23.675 21.6096 23.7249 21.6441 23.7665 21.6872L25.1508 23.0715L28.2388 19.9831C28.2808 19.9411 28.3306 19.9078 28.3854 19.8851C28.4403 19.8624 28.499 19.8507 28.5584 19.8507C28.6177 19.8507 28.6765 19.8624 28.7313 19.8851C28.7862 19.9078 28.836 19.9411 28.8779 19.9831Z" fill="white"/>
</g>
<defs>
<clipPath id="clip0_1022_10554">
<rect width="32" height="32" fill="white"/>
</clipPath>
</defs>
</svg>
