<svg width="80" height="80" viewBox="0 0 80 80" fill="none" xmlns="http://www.w3.org/2000/svg">
<g clip-path="url(#clip0_4061_6130)">
<path d="M40 47.6782C34.6258 47.6782 30.2519 50.738 27.6629 53.1112C26.1134 54.543 23.7205 54.5038 22.2299 53.0132C20.6607 51.4441 20.7 48.855 22.3475 47.3448C25.9565 44.03 32.0956 39.8327 40.0196 39.8327C41.7652 39.8327 43.4324 40.0484 45.0015 40.4015C44.4523 42.0294 44.1385 43.775 44.1385 45.5991C44.1385 46.5406 44.217 47.4624 44.3739 48.3451C43.0009 47.9332 41.5299 47.6782 40 47.6782ZM48.9439 34.0858C51.4153 31.6341 54.6712 29.9865 58.3193 29.5354C53.1805 26.8287 47.0218 24.8477 40.0196 24.8477C27.5452 24.8477 17.7187 31.183 11.658 36.5375C9.95159 38.0282 9.87313 40.6564 11.4815 42.2648C12.9329 43.7358 15.2866 43.8143 16.836 42.4413C17.5814 41.7744 18.4052 41.0879 19.2878 40.4211C25.9565 35.3019 32.9194 32.6932 40 32.6932C43.0009 32.6932 45.9822 33.164 48.9439 34.0858ZM78.8354 26.3972C77.0309 24.6123 74.6381 22.5136 71.696 20.3953C62.1833 13.5893 51.2191 10 40 10C28.7809 10 17.8167 13.5893 8.30402 20.3953C5.36195 22.5136 2.96906 24.6123 1.16458 26.3972C-0.38491 27.9271 -0.38491 30.418 1.14497 31.9675C2.67485 33.4974 5.12658 33.4974 6.65646 31.9871C11.9522 26.7895 23.4655 17.8455 40 17.8455C49.6108 17.8455 58.6724 20.8072 66.9102 26.6129C69.5777 28.4959 71.7352 30.3984 73.3239 31.9675C74.8734 33.4778 77.3252 33.4778 78.855 31.9479C80.3849 30.418 80.3849 27.9074 78.8354 26.3972ZM40 55.1118C35.6653 55.1118 32.1545 58.6227 32.1545 62.9574C32.1545 67.292 35.6653 70.8029 40 70.8029C44.3347 70.8029 47.8455 67.292 47.8455 62.9574C47.8455 58.6227 44.3347 55.1118 40 55.1118ZM60.3003 31.3791C52.4548 31.3791 46.0803 37.7536 46.0803 45.5991C46.0803 53.4447 52.4548 59.8192 60.3003 59.8192C68.1459 59.8192 74.5204 53.4447 74.5204 45.5991C74.5204 37.7536 68.1459 31.3791 60.3003 31.3791ZM67.2436 49.7573C68.0086 50.5222 68.0086 51.7579 67.2436 52.5228C66.4787 53.2878 65.243 53.2878 64.4781 52.5228L60.32 48.3647L56.1618 52.5228C55.3969 53.2878 54.1612 53.2878 53.3963 52.5228C52.6313 51.7579 52.6313 50.5222 53.3963 49.7573L57.5544 45.5991L53.3963 41.441C52.6313 40.6761 52.6313 39.4404 53.3963 38.6754C54.1612 37.9105 55.3969 37.9105 56.1618 38.6754L60.32 42.8336L64.4781 38.6754C65.243 37.9105 66.4787 37.9105 67.2436 38.6754C68.0086 39.4404 68.0086 40.6761 67.2436 41.441L63.0855 45.5991L67.2436 49.7573Z" fill="url(#paint0_linear_4061_6130)"/>
</g>
<defs>
<linearGradient id="paint0_linear_4061_6130" x1="5" y1="-4.19481" x2="67.5973" y2="58.4025" gradientUnits="userSpaceOnUse">
<stop stop-color="#E8EDF2"/>
<stop offset="1" stop-color="#2A5A89"/>
</linearGradient>
<clipPath id="clip0_4061_6130">
<rect width="80" height="80" fill="white"/>
</clipPath>
</defs>
</svg>
