<svg width="80" height="80" viewBox="0 0 80 80" fill="none" xmlns="http://www.w3.org/2000/svg">
<path d="M49.5311 7.03125C36.6085 7.03125 26.0936 17.5461 26.0936 30.4688C26.0936 43.3914 36.6085 53.9062 49.5311 53.9062C62.4538 53.9062 72.9686 43.3914 72.9686 30.4688C72.9686 17.5461 62.4538 7.03125 49.5311 7.03125ZM27.9888 48.6992L22.0929 54.593C21.1774 55.5084 21.1774 56.9917 22.0929 57.9072C23.0083 58.8228 24.4916 58.8227 25.4071 57.9072L31.303 52.0134C32.2185 51.098 32.2185 49.6147 31.303 48.6992C30.3875 47.7837 28.9043 47.7836 27.9888 48.6992Z" fill="url(#paint0_linear_1637_13023)"/>
<path d="M49.5311 0C32.7496 0 19.0624 13.6873 19.0624 30.4688C19.0624 47.2502 32.7496 60.9375 49.5311 60.9375C66.3127 60.9375 79.9999 47.2502 79.9999 30.4688C79.9999 13.6873 66.3127 0 49.5311 0ZM49.5311 51.5625C37.9063 51.5625 28.4374 42.0936 28.4374 30.4688C28.4374 18.8439 37.9063 9.375 49.5311 9.375C61.156 9.375 70.6249 18.8439 70.6249 30.4688C70.6249 42.0936 61.156 51.5625 49.5311 51.5625ZM22.0929 51.2787C21.1774 50.3633 19.6941 50.3633 18.7786 51.2787L0.686602 69.3708C-0.228867 70.2862 -0.228867 71.7695 0.686602 72.685L7.31504 79.3134C8.23066 80.2289 9.71379 80.2289 10.6293 79.3134L28.7213 61.2214C29.6368 60.3059 29.6368 58.8227 28.7213 57.9072L22.0929 51.2787Z" fill="url(#paint1_linear_1637_13023)"/>
<defs>
<linearGradient id="paint0_linear_1637_13023" x1="22.0929" y1="57.9072" x2="66.0958" y2="13.9041" gradientUnits="userSpaceOnUse">
<stop stop-color="#ADDCFF"/>
<stop offset="0.5028" stop-color="#EAF6FF"/>
<stop offset="1" stop-color="#EAF6FF"/>
</linearGradient>
<linearGradient id="paint1_linear_1637_13023" x1="4.00082" y1="75.9992" x2="79.9999" y2="0.000156255" gradientUnits="userSpaceOnUse">
<stop stop-color="#2A5A89"/>
<stop offset="1" stop-color="#E8EDF2"/>
</linearGradient>
</defs>
</svg>
