<svg width="25" height="24" viewBox="0 0 25 24" fill="none" xmlns="http://www.w3.org/2000/svg">
<path d="M20.7654 12.2591C20.7257 12.1785 20.705 12.0898 20.705 12C20.705 11.9102 20.7257 11.8216 20.7654 11.741L21.5113 10.215C21.9266 9.36538 21.5976 8.3527 20.7622 7.90946L19.2618 7.11337C19.1823 7.07152 19.1135 7.01196 19.0607 6.9393C19.0079 6.86663 18.9725 6.7828 18.9573 6.69428L18.6638 5.02129C18.5004 4.08981 17.6388 3.46388 16.7026 3.59634L15.0209 3.83423C14.932 3.84708 14.8413 3.83933 14.7559 3.81157C14.6704 3.7838 14.5925 3.73678 14.5282 3.67412L13.3075 2.49319C12.6277 1.83562 11.5629 1.83558 10.8832 2.49319L9.66246 3.67423C9.59808 3.73688 9.52018 3.7839 9.43475 3.81166C9.34933 3.83942 9.25867 3.84718 9.16977 3.83435L7.48803 3.59646C6.55152 3.46392 5.6902 4.08993 5.5268 5.02141L5.23337 6.69432C5.21812 6.78284 5.18273 6.86667 5.12993 6.93934C5.07714 7.01202 5.00835 7.07159 4.92888 7.11345L3.42851 7.90954C2.59312 8.35273 2.26407 9.3655 2.67937 10.2151L3.42526 11.7411C3.46497 11.8216 3.48562 11.9103 3.48562 12.0001C3.48562 12.0899 3.46497 12.1786 3.42526 12.2591L2.67933 13.7851C2.26403 14.6347 2.59309 15.6474 3.42847 16.0906L4.92884 16.8867C5.00832 16.9285 5.07712 16.9881 5.12992 17.0608C5.18272 17.1334 5.21811 17.2173 5.23337 17.3058L5.5268 18.9788C5.67555 19.8267 6.40265 20.4214 7.2383 20.4213C7.32061 20.4213 7.40412 20.4156 7.48807 20.4037L9.16981 20.1658C9.25871 20.1529 9.34938 20.1607 9.43481 20.1884C9.52024 20.2162 9.59814 20.2632 9.6625 20.3259L10.8832 21.5068C11.2231 21.8357 11.6592 22 12.0953 22C12.5314 22 12.9677 21.8356 13.3074 21.5068L14.5282 20.3259C14.6599 20.1985 14.8394 20.1403 15.0209 20.1658L16.7026 20.4037C17.6392 20.5362 18.5004 19.9102 18.6638 18.9787L18.9573 17.3058C18.9726 17.2173 19.0079 17.1335 19.0607 17.0608C19.1135 16.9881 19.1823 16.9286 19.2618 16.8867L20.7622 16.0906C21.5976 15.6474 21.9266 14.6347 21.5113 13.785L20.7654 12.2591ZM20.2215 15.0716L18.7211 15.8677C18.2428 16.1216 17.9147 16.573 17.8212 17.1065L17.5277 18.7794C17.5018 18.9304 17.418 19.0654 17.294 19.1554C17.1701 19.2455 17.0158 19.2836 16.8642 19.2615L15.1824 19.0236C14.6461 18.9477 14.1154 19.1203 13.7262 19.4968L12.5054 20.6777C12.3957 20.7846 12.2485 20.8445 12.0953 20.8445C11.9421 20.8445 11.7949 20.7846 11.6852 20.6777L10.4645 19.4967C10.1355 19.1785 9.70543 19.006 9.25645 19.006C9.17418 19.006 9.09125 19.0118 9.00821 19.0236L7.32647 19.2615C7.17484 19.2835 7.02061 19.2454 6.89666 19.1554C6.77271 19.0653 6.68883 18.9304 6.66292 18.7794L6.36945 17.1064C6.27586 16.573 5.94781 16.1214 5.46942 15.8676L3.96905 15.0716C3.8334 15.0003 3.73098 14.8788 3.68362 14.7331C3.63627 14.5874 3.64773 14.4289 3.71557 14.2915L4.4615 12.7656C4.69931 12.279 4.69931 11.721 4.4615 11.2344L3.71557 9.70846C3.64773 9.57107 3.63627 9.41261 3.68362 9.26688C3.73098 9.12115 3.8334 8.9997 3.96905 8.92843L5.46942 8.13235C5.94777 7.87848 6.27586 7.427 6.36941 6.89357L6.66284 5.22062C6.68872 5.06959 6.77258 4.93465 6.89654 4.84459C7.02051 4.75452 7.17476 4.71646 7.32639 4.73852L9.00813 4.97641C9.54425 5.0523 10.0751 4.87977 10.4644 4.50325L11.6852 3.32232C11.7949 3.21537 11.942 3.15551 12.0953 3.15551C12.2485 3.15551 12.3956 3.21537 12.5054 3.32232L13.7261 4.50325C14.1153 4.87981 14.6461 5.0523 15.1824 4.97641L16.8641 4.73852C17.0157 4.71648 17.17 4.75455 17.2939 4.84461C17.4179 4.93468 17.5017 5.0696 17.5276 5.22062L17.8211 6.89361C17.9147 7.42704 18.2427 7.87856 18.7211 8.13235L20.2215 8.92843C20.3571 8.9997 20.4595 9.12115 20.5069 9.26688C20.5543 9.41261 20.5428 9.57107 20.4749 9.70846L19.729 11.2344C19.4912 11.7209 19.4912 12.279 19.729 12.7655L20.4749 14.2915C20.5428 14.4289 20.5543 14.5873 20.5069 14.7331C20.4596 14.8788 20.3572 15.0003 20.2215 15.0716Z" fill="#999999"/>
<path d="M16.3101 7.78612C16.0849 7.56089 15.7197 7.56089 15.4945 7.78612L7.8817 15.3989C7.65647 15.6242 7.65647 15.9893 7.8817 16.2146C7.9352 16.2682 7.99876 16.3108 8.06875 16.3397C8.13873 16.3687 8.21376 16.3836 8.28951 16.3835C8.43709 16.3835 8.58474 16.3272 8.69732 16.2146L16.3101 8.60182C16.5354 8.37654 16.5354 8.01139 16.3101 7.78612ZM9.78891 6.80957C8.62283 6.80957 7.67413 7.75827 7.67413 8.92435C7.67413 10.0904 8.62283 11.0391 9.78891 11.0391C10.955 11.0391 11.9037 10.0904 11.9037 8.92435C11.9037 7.75827 10.955 6.80957 9.78891 6.80957ZM9.78891 9.88559C9.25887 9.88559 8.82767 9.45438 8.82767 8.92431C8.82767 8.39428 9.25887 7.96307 9.78891 7.96307C10.3189 7.96307 10.7502 8.39428 10.7502 8.92431C10.7501 9.45438 10.3189 9.88559 9.78891 9.88559ZM14.4029 12.9616C13.2368 12.9616 12.2881 13.9103 12.2881 15.0764C12.2881 16.2425 13.2368 17.1912 14.4029 17.1912C15.569 17.1912 16.5177 16.2425 16.5177 15.0764C16.5177 13.9103 15.569 12.9616 14.4029 12.9616ZM14.4029 16.0376C13.8729 16.0376 13.4416 15.6064 13.4416 15.0764C13.4416 14.5464 13.8728 14.1151 14.4029 14.1151C14.9329 14.1151 15.3642 14.5464 15.3642 15.0764C15.3642 15.6064 14.9329 16.0376 14.4029 16.0376Z" fill="#999999"/>
</svg>
