<svg width="18" height="20" viewBox="0 0 18 20" fill="none" xmlns="http://www.w3.org/2000/svg">
<g clip-path="url(#clip0_969_4616)">
<path d="M5.63736 5.625V7.5H11.9011V5.625C11.9011 3.89844 10.4996 2.5 8.76923 2.5C7.03887 2.5 5.63736 3.89844 5.63736 5.625ZM3.13187 7.5V5.625C3.13187 2.51953 5.65694 0 8.76923 0C11.8815 0 14.4066 2.51953 14.4066 5.625V7.5H15.033C16.4149 7.5 17.5385 8.62109 17.5385 10V17.5C17.5385 18.8789 16.4149 20 15.033 20H2.50549C1.12356 20 0 18.8789 0 17.5V10C0 8.62109 1.12356 7.5 2.50549 7.5H3.13187Z" fill="#999999"/>
</g>
<defs>
<clipPath id="clip0_969_4616">
<rect width="17.5385" height="20" fill="white"/>
</clipPath>
</defs>
</svg>
