<svg width="24" height="24" viewBox="0 0 24 24" fill="none" xmlns="http://www.w3.org/2000/svg">
<path d="M21.1826 16.4C21.1279 16.3567 17.1593 13.496 16.0699 13.7013C15.5499 13.7933 15.2526 14.148 14.6559 14.858C14.5599 14.9727 14.3293 15.2473 14.1499 15.4427C13.7729 15.3197 13.405 15.17 13.0493 14.9947C11.2129 14.1007 9.72926 12.617 8.83526 10.7807C8.65984 10.4249 8.51012 10.0571 8.38726 9.68C8.58326 9.5 8.85793 9.26933 8.97526 9.17067C9.68193 8.57733 10.0373 8.28 10.1293 7.75867C10.3179 6.67867 7.45926 2.68267 7.42926 2.64667C7.29956 2.46138 7.13029 2.30724 6.93371 2.1954C6.73713 2.08356 6.51814 2.01682 6.29259 2C5.13393 2 1.82593 6.29133 1.82593 7.014C1.82593 7.056 1.88659 11.3253 7.15126 16.6807C12.5013 21.9393 16.7699 22 16.8119 22C17.5353 22 21.8259 18.692 21.8259 17.5333C21.8093 17.3086 21.743 17.0903 21.6317 16.8943C21.5204 16.6983 21.367 16.5295 21.1826 16.4Z" fill="#999999"/>
</svg>
