<svg width="20" height="20" viewBox="0 0 20 20" fill="none" xmlns="http://www.w3.org/2000/svg">
<g clip-path="url(#clip0_1040_9030)">
<path d="M7.99957 12.6172L9.92905 10.6877C10.1579 10.4588 10.1579 10.088 9.92905 9.85916L8.14041 8.07037L9.66934 4.24805C9.74319 4.06265 9.71786 3.85208 9.60174 3.68958C8.61236 2.30896 7.00912 1.48438 5.3125 1.48438C2.21451 1.48438 0 3.90488 0 7.37061C0 11.692 3.60474 13.8834 8.582 18.1973C8.85284 18.4322 9.03259 18.6362 9.38827 18.5269C9.58282 18.4651 9.73099 18.3078 9.78027 18.1097L10.4424 15.4622C10.4927 15.2626 10.4337 15.0514 10.2884 14.906L7.99957 12.6172Z" fill="white"/>
<path d="M14.6875 1.48438C13.6627 1.48438 12.6681 1.77902 11.8117 2.33688C11.7103 2.4028 11.6325 2.49832 11.5874 2.61047L9.65895 7.43011C9.57197 7.64755 9.62294 7.89597 9.7888 8.06183L12.0004 10.2734L10.0709 12.2029C9.84205 12.4318 9.84205 12.8026 10.0709 13.0315L11.8207 14.7813L11.2279 17.1548C11.1656 17.4026 11.272 17.6624 11.49 17.7963C11.8159 17.9958 12.0572 17.8456 12.31 17.6263C14.0094 16.1563 15.3518 14.9953 16.5385 13.86C18.3101 12.1646 20 10.2048 20 7.37061C20 3.90488 17.7855 1.48438 14.6875 1.48438Z" fill="white"/>
</g>
<defs>
<clipPath id="clip0_1040_9030">
<rect width="20" height="20" fill="white"/>
</clipPath>
</defs>
</svg>
