<svg width="20" height="20" viewBox="0 0 20 20" fill="none" xmlns="http://www.w3.org/2000/svg">
<path d="M5.62461 17.5291C5.64342 17.9783 6.01308 18.3328 6.46263 18.3328H14.2929C14.7424 18.3328 15.1121 17.9783 15.1309 17.5291L15.6901 5.72461H5.06543L5.62461 17.5291ZM12.149 8.65664C12.149 8.46854 12.3016 8.31599 12.4897 8.31599H13.0346C13.2227 8.31599 13.3753 8.4685 13.3753 8.65664V15.4008C13.3753 15.589 13.2228 15.7415 13.0346 15.7415H12.4897C12.3016 15.7415 12.149 15.589 12.149 15.4008V8.65664ZM9.76465 8.65664C9.76465 8.46854 9.91716 8.31599 10.1053 8.31599H10.6502C10.8383 8.31599 10.9908 8.4685 10.9908 8.65664V15.4008C10.9908 15.589 10.8384 15.7415 10.6502 15.7415H10.1053C9.9172 15.7415 9.76465 15.589 9.76465 15.4008V8.65664ZM7.38017 8.65664C7.38017 8.46854 7.53269 8.31599 7.72082 8.31599H8.26577C8.45386 8.31599 8.60642 8.4685 8.60642 8.65664V15.4008C8.60642 15.589 8.4539 15.7415 8.26577 15.7415H7.72082C7.53273 15.7415 7.38017 15.589 7.38017 15.4008V8.65664Z" fill="#C50030"/>
<path d="M16.0624 2.5246H12.4501V1.84167C12.4501 1.74468 12.3715 1.66602 12.2744 1.66602H8.48108C8.3841 1.66602 8.30547 1.74468 8.30547 1.84167V2.52456H4.69309C4.40238 2.52456 4.16675 2.76023 4.16675 3.05094V4.70449H16.5888V3.05098C16.5888 2.76027 16.3531 2.5246 16.0624 2.5246Z" fill="#C50030"/>
</svg>
