<svg width="20" height="20" viewBox="0 0 20 20" fill="none" xmlns="http://www.w3.org/2000/svg">
<path d="M10.0001 13.0808C11.7006 13.0808 13.0791 11.7022 13.0791 10.0017C13.0791 8.30121 11.7006 6.92268 10.0001 6.92268C8.29955 6.92268 6.92102 8.30121 6.92102 10.0017C6.92102 11.7022 8.29955 13.0808 10.0001 13.0808Z" fill="#CCCCCC"/>
<path d="M19.6932 9.14882C17.3265 6.28878 13.7438 3.53574 10 3.53574C6.25555 3.53574 2.67205 6.2907 0.306845 9.14882C-0.102282 9.64301 -0.102282 10.3604 0.306845 10.8546C0.901484 11.5732 2.14811 12.9603 3.8131 14.1723C8.00632 17.2248 11.9845 17.2316 16.187 14.1723C17.852 12.9603 19.0986 11.5732 19.6932 10.8546C20.1012 10.3614 20.1033 9.64462 19.6932 9.14882ZM10 5.69106C12.3771 5.69106 14.3107 7.6247 14.3107 10.0017C14.3107 12.3787 12.3771 14.3124 10 14.3124C7.62302 14.3124 5.68939 12.3787 5.68939 10.0017C5.68939 7.6247 7.62302 5.69106 10 5.69106Z" fill="#CCCCCC"/>
</svg>
