<svg width="20" height="20" viewBox="0 0 20 20" fill="none" xmlns="http://www.w3.org/2000/svg">
<path d="M12.0833 1.87496C11.7381 1.87496 11.4583 2.15479 11.4583 2.49996V17.5C11.4583 17.8452 11.7381 18.125 12.0833 18.125C12.4284 18.125 12.7083 17.8452 12.7083 17.5V2.49996C12.7083 2.15479 12.4284 1.87496 12.0833 1.87496Z" fill="#1A1A1A"/>
<path d="M11.6413 2.01615C11.8854 1.77206 12.2811 1.77206 12.5252 2.01615L17.5252 7.01615C17.7693 7.26023 17.7693 7.65595 17.5252 7.90003C17.2811 8.14411 16.8854 8.1441 16.6413 7.90003L11.6413 2.90003C11.3973 2.65595 11.3973 2.26022 11.6413 2.01615Z" fill="#1A1A1A"/>
<path d="M7.9165 1.91685C7.57134 1.91685 7.2915 2.19666 7.2915 2.54185V17.5418C7.2915 17.887 7.57134 18.1668 7.9165 18.1668C8.26167 18.1668 8.5415 17.887 8.5415 17.5418V2.54185C8.5415 2.19666 8.26167 1.91685 7.9165 1.91685Z" fill="#1A1A1A"/>
<path d="M2.47461 12.0999C2.23052 12.344 2.23052 12.7397 2.47461 12.9838L7.47461 17.9838C7.71869 18.2278 8.11436 18.2278 8.35844 17.9838C8.60252 17.7397 8.60252 17.344 8.35844 17.0999L3.35844 12.0999C3.11436 11.8558 2.71869 11.8558 2.47461 12.0999Z" fill="#1A1A1A"/>
</svg>
