<svg width="17" height="16" viewBox="0 0 17 16" fill="none" xmlns="http://www.w3.org/2000/svg">
<g clip-path="url(#clip0_1952_13767)">
<path d="M11.0804 9.07985C11.0804 10.5027 9.9229 11.6603 8.5 11.6603C7.0771 11.6603 5.92003 10.5027 5.92003 9.07985C5.92003 7.65695 7.0771 6.49943 8.5 6.49943C9.9229 6.49943 11.0804 7.65739 11.0804 9.07985ZM16.5 5.41578V12.7448C16.5 13.7219 15.7078 14.514 14.7308 14.514H2.26923C1.29217 14.514 0.5 13.7219 0.5 12.7448V5.41578C0.5 4.43872 1.29217 3.64655 2.26923 3.64655H4.44538V3.0344C4.44538 2.17942 5.13803 1.48633 5.99345 1.48633H11.0066C11.862 1.48633 12.5546 2.17942 12.5546 3.0344V3.64611H14.7308C15.7078 3.64655 16.5 4.43872 16.5 5.41578ZM12.4073 9.07985C12.4073 6.92537 10.6545 5.17251 8.5 5.17251C6.34597 5.17251 4.59311 6.92537 4.59311 9.07985C4.59311 11.2343 6.34597 12.9872 8.5 12.9872C10.6545 12.9872 12.4073 11.2343 12.4073 9.07985Z" fill="white"/>
</g>
<defs>
<clipPath id="clip0_1952_13767">
<rect width="16" height="16" fill="white" transform="translate(0.5)"/>
</clipPath>
</defs>
</svg>
