<svg width="20" height="20" viewBox="0 0 20 20" fill="none" xmlns="http://www.w3.org/2000/svg">
<mask id="path-1-inside-1_2552_3520" fill="white">
<path fill-rule="evenodd" clip-rule="evenodd" d="M0 4.64286C0 3.45939 0.959393 2.5 2.14286 2.5H17.8571C19.0406 2.5 20 3.45939 20 4.64286V5.35714H0V4.64286ZM0 6.78571H20V14.6429C20 15.8264 19.0406 16.7857 17.8571 16.7857H2.14286C0.959393 16.7857 0 15.8264 0 14.6429V6.78571ZM11.4286 11.7857C11.0341 11.7857 10.7143 12.1055 10.7143 12.5C10.7143 12.8945 11.0341 13.2143 11.4286 13.2143H15.7143C16.1088 13.2143 16.4286 12.8945 16.4286 12.5C16.4286 12.1055 16.1088 11.7857 15.7143 11.7857H11.4286Z"/>
</mask>
<path fill-rule="evenodd" clip-rule="evenodd" d="M0 4.64286C0 3.45939 0.959393 2.5 2.14286 2.5H17.8571C19.0406 2.5 20 3.45939 20 4.64286V5.35714H0V4.64286ZM0 6.78571H20V14.6429C20 15.8264 19.0406 16.7857 17.8571 16.7857H2.14286C0.959393 16.7857 0 15.8264 0 14.6429V6.78571ZM11.4286 11.7857C11.0341 11.7857 10.7143 12.1055 10.7143 12.5C10.7143 12.8945 11.0341 13.2143 11.4286 13.2143H15.7143C16.1088 13.2143 16.4286 12.8945 16.4286 12.5C16.4286 12.1055 16.1088 11.7857 15.7143 11.7857H11.4286Z" fill="#12477B"/>
<path d="M20 5.35714V21.3571H36V5.35714H20ZM0 5.35714H-16V21.3571H0V5.35714ZM0 6.78571V-9.21429H-16V6.78571H0ZM20 6.78571H36V-9.21429H20V6.78571ZM16 4.64286C16 12.2959 9.79595 18.5 2.14286 18.5V-13.5C-7.87716 -13.5 -16 -5.37716 -16 4.64286H16ZM2.14286 18.5H17.8571V-13.5H2.14286V18.5ZM17.8571 18.5C10.2039 18.5 4 12.2958 4 4.64286H36C36 -5.37699 27.8774 -13.5 17.8571 -13.5V18.5ZM4 4.64286V5.35714H36V4.64286H4ZM20 -10.6429H0V21.3571H20V-10.6429ZM16 5.35714V4.64286H-16V5.35714H16ZM0 22.7857H20V-9.21429H0V22.7857ZM4 6.78571V14.6429H36V6.78571H4ZM4 14.6429C4 6.9898 10.2041 0.785713 17.8571 0.785713V32.7857C27.8772 32.7857 36 24.6629 36 14.6429H4ZM17.8571 0.785713H2.14286V32.7857H17.8571V0.785713ZM2.14286 0.785713C9.79577 0.785713 16 6.98963 16 14.6429H-16C-16 24.6631 -7.87699 32.7857 2.14286 32.7857V0.785713ZM16 14.6429V6.78571H-16V14.6429H16ZM11.4286 -4.21429C2.19752 -4.21429 -5.28571 3.26894 -5.28571 12.5H26.7143C26.7143 20.9421 19.8706 27.7857 11.4286 27.7857V-4.21429ZM-5.28571 12.5C-5.28571 21.7311 2.19752 29.2143 11.4286 29.2143V-2.78572C19.8706 -2.78572 26.7143 4.05794 26.7143 12.5H-5.28571ZM11.4286 29.2143H15.7143V-2.78572H11.4286V29.2143ZM15.7143 29.2143C24.9453 29.2143 32.4286 21.7311 32.4286 12.5H0.428572C0.428572 4.05794 7.27223 -2.78572 15.7143 -2.78572V29.2143ZM32.4286 12.5C32.4286 3.26894 24.9453 -4.21429 15.7143 -4.21429V27.7857C7.27223 27.7857 0.428572 20.9421 0.428572 12.5H32.4286ZM15.7143 -4.21429H11.4286V27.7857H15.7143V-4.21429Z" fill="#12477B" mask="url(#path-1-inside-1_2552_3520)"/>
</svg>
