<svg width="24" height="24" viewBox="0 0 24 24" fill="none" xmlns="http://www.w3.org/2000/svg">
<g clip-path="url(#clip0_1040_7757)">
<path d="M19.249 7.83784C21.4134 7.83784 23.1679 6.08328 23.1679 3.91892C23.1679 1.75456 21.4134 0 19.249 0C17.0846 0 15.3301 1.75456 15.3301 3.91892C15.3301 6.08328 17.0846 7.83784 19.249 7.83784Z" fill="#FCD249"/>
<path d="M17.0116 5.21039C16.0433 3.53331 16.4564 1.4388 17.8965 0.241211C17.6898 0.317478 17.4866 0.411136 17.2894 0.524998C15.4151 1.60713 14.7729 4.0038 15.855 5.87818C16.9371 7.75247 19.3338 8.39471 21.2081 7.31254C21.4054 7.19863 21.5881 7.06944 21.7575 6.92862C20.0002 7.57696 17.9798 6.88747 17.0116 5.21039Z" fill="#F9B938"/>
<path d="M19.249 6.50213C20.6756 6.50213 21.8321 5.34564 21.8321 3.91903C21.8321 2.49243 20.6756 1.33594 19.249 1.33594C17.8224 1.33594 16.6659 2.49243 16.6659 3.91903C16.6659 5.34564 17.8224 6.50213 19.249 6.50213Z" fill="#F9B938"/>
<path d="M18.0571 4.60735C17.4477 3.55189 17.6684 2.2456 18.5157 1.44238C18.3247 1.49906 18.1372 1.57818 17.9571 1.68215C16.7215 2.39551 16.2982 3.97542 17.0116 5.21097C17.7249 6.44657 19.3048 6.86986 20.5404 6.15651C20.7205 6.05254 20.8827 5.92967 21.0273 5.79266C19.908 6.12491 18.6664 5.66286 18.0571 4.60735Z" fill="#E59C1C"/>
<path d="M15.4913 7.83784C17.6557 7.83784 19.4102 6.08328 19.4102 3.91892C19.4102 1.75456 17.6557 0 15.4913 0C13.3269 0 11.5724 1.75456 11.5724 3.91892C11.5724 6.08328 13.3269 7.83784 15.4913 7.83784Z" fill="#FCD249"/>
<path d="M13.2541 5.21039C12.2859 3.53331 12.699 1.4388 14.1391 0.241211C13.9324 0.317478 13.7292 0.411136 13.5319 0.524998C11.6576 1.60713 11.0154 4.0038 12.0976 5.87818C13.1797 7.75247 15.5764 8.39471 17.4507 7.31254C17.648 7.19863 17.8307 7.06944 18.0001 6.92862C16.2428 7.57696 14.2224 6.88747 13.2541 5.21039Z" fill="#F9B938"/>
<path d="M15.4913 6.50213C16.9179 6.50213 18.0744 5.34564 18.0744 3.91903C18.0744 2.49243 16.9179 1.33594 15.4913 1.33594C14.0647 1.33594 12.9082 2.49243 12.9082 3.91903C12.9082 5.34564 14.0647 6.50213 15.4913 6.50213Z" fill="#F9B938"/>
<path d="M14.2997 4.60735C13.6903 3.55189 13.911 2.2456 14.7582 1.44238C14.5673 1.49906 14.3798 1.57818 14.1997 1.68215C12.9641 2.39551 12.5408 3.97542 13.2541 5.21097C13.9675 6.44653 15.5474 6.86986 16.783 6.15651C16.963 6.05254 17.1253 5.92967 17.2699 5.79265C16.1506 6.12491 14.909 5.66286 14.2997 4.60735Z" fill="#E59C1C"/>
<path d="M15.8194 6.5679L9.50648 0.206742C9.23343 -0.0663099 8.78656 -0.0663099 8.51351 0.206742L2.20068 6.5679H15.8194Z" fill="#91CE91"/>
<path d="M9.50648 0.206742C9.23343 -0.0663099 8.78656 -0.0663099 8.51351 0.206742L2.20068 6.5679H4.08397L9.95166 0.655298L9.50648 0.206742Z" fill="#5EAA5E"/>
<path d="M8.51362 2.09545L4.08923 6.56816H13.931L9.50659 2.09545C9.23349 1.82235 8.78667 1.82235 8.51362 2.09545Z" fill="#5EAA5E"/>
<path d="M9.50659 2.09541C9.23354 1.82236 8.78667 1.82236 8.51362 2.09541L4.08923 6.56813H5.34476L9.63789 2.22812L9.50659 2.09541Z" fill="#4D964D"/>
<path d="M23.9991 18.4566V21.8124C23.9991 23.0187 23.0178 24.0001 21.8115 24.0001H2.18851C0.982202 24.0001 0.000854492 23.0187 0.000854492 21.8124V8.70714C0.000854492 7.50088 0.982202 6.51953 2.18851 6.51953H21.8115C23.0178 6.51953 23.9992 7.50088 23.9992 8.70714V12.0502" fill="#DD9A5E"/>
<path d="M1.35294 21.8125V8.70714C1.35294 7.50088 2.33429 6.51953 3.5406 6.51953H2.18851C0.982202 6.51953 0.000854492 7.50088 0.000854492 8.70714V21.8125C0.000854492 23.0188 0.982202 24.0001 2.18851 24.0001H3.5406C2.33429 24.0001 1.35294 23.0187 1.35294 21.8125Z" fill="#D38D54"/>
<path d="M23.9991 12.1689H18.4182C16.7184 12.1689 15.3276 13.5597 15.3276 15.2595C15.3276 16.9593 16.7184 18.35 18.4182 18.35H23.9991V12.1689Z" fill="#D38D54"/>
<path d="M15.4008 14.5957C15.3535 14.8098 15.3278 15.0317 15.3278 15.2596C15.3278 16.9594 16.7185 18.35 18.4183 18.35H23.9992V17.0223H18.4183C16.9463 17.0224 15.7068 15.9792 15.4008 14.5957Z" fill="#C17B48"/>
<path d="M18.5033 16.9838C19.4634 16.9838 20.2417 16.2055 20.2417 15.2453C20.2417 14.2852 19.4634 13.5068 18.5033 13.5068C17.5431 13.5068 16.7648 14.2852 16.7648 15.2453C16.7648 16.2055 17.5431 16.9838 18.5033 16.9838Z" fill="#DADADA"/>
<path d="M19.559 16.0553C18.6316 15.8068 18.0813 14.8535 18.3297 13.9262C18.37 13.7758 18.4291 13.6356 18.5034 13.5068C17.7354 13.5064 17.0324 14.0184 16.8242 14.7954C16.5757 15.7228 17.126 16.676 18.0535 16.9245C18.8305 17.1327 19.6254 16.7799 20.009 16.1146C19.8604 16.1145 19.7093 16.0955 19.559 16.0553Z" fill="#C0C0C0"/>
<path d="M1.76942 22.6514C1.78288 22.4518 1.95538 22.3016 2.15512 22.3144C2.1645 22.315 2.17401 22.3154 2.18348 22.3155C2.3835 22.3178 2.54372 22.4818 2.54142 22.6818C2.53561 23.1849 1.73652 23.1393 1.76942 22.6514ZM21.4274 23.0398H21.3787C21.1787 23.0398 21.0166 22.8776 21.0166 22.6776C21.0166 22.4776 21.1787 22.3155 21.3787 22.3155H21.4274C21.6274 22.3155 21.7895 22.4776 21.7895 22.6776C21.7895 22.8776 21.6274 23.0398 21.4274 23.0398ZM19.6775 23.0398H19.6289C19.4288 23.0398 19.2667 22.8776 19.2667 22.6776C19.2667 22.4776 19.4288 22.3155 19.6289 22.3155H19.6775C19.8775 22.3155 20.0396 22.4776 20.0396 22.6776C20.0396 22.8776 19.8775 23.0398 19.6775 23.0398ZM17.9277 23.0398H17.8791C17.6791 23.0398 17.517 22.8776 17.517 22.6776C17.517 22.4776 17.6791 22.3155 17.8791 22.3155H17.9277C18.1278 22.3155 18.2899 22.4776 18.2899 22.6776C18.2899 22.8776 18.1277 23.0398 17.9277 23.0398ZM16.1779 23.0398H16.1293C15.9292 23.0398 15.7671 22.8776 15.7671 22.6776C15.7671 22.4776 15.9292 22.3155 16.1293 22.3155H16.1779C16.3779 22.3155 16.54 22.4776 16.54 22.6776C16.54 22.8776 16.3779 23.0398 16.1779 23.0398ZM14.4281 23.0398H14.3795C14.1794 23.0398 14.0173 22.8776 14.0173 22.6776C14.0173 22.4776 14.1794 22.3155 14.3795 22.3155H14.4281C14.6281 22.3155 14.7902 22.4776 14.7902 22.6776C14.7902 22.8776 14.6281 23.0398 14.4281 23.0398ZM12.6782 23.0398H12.6296C12.4296 23.0398 12.2675 22.8776 12.2675 22.6776C12.2675 22.4776 12.4296 22.3155 12.6296 22.3155H12.6782C12.8783 22.3155 13.0404 22.4776 13.0404 22.6776C13.0404 22.8776 12.8783 23.0398 12.6782 23.0398ZM10.9284 23.0398H10.8798C10.6798 23.0398 10.5176 22.8776 10.5176 22.6776C10.5176 22.4776 10.6798 22.3155 10.8798 22.3155H10.9284C11.1284 22.3155 11.2906 22.4776 11.2906 22.6776C11.2906 22.8776 11.1284 23.0398 10.9284 23.0398ZM9.17859 23.0398H9.12998C8.92996 23.0398 8.76781 22.8776 8.76781 22.6776C8.76781 22.4776 8.92996 22.3155 9.12998 22.3155H9.17859C9.3786 22.3155 9.54075 22.4776 9.54075 22.6776C9.54075 22.8776 9.3786 23.0398 9.17859 23.0398ZM7.42875 23.0398H7.38014C7.18012 23.0398 7.01798 22.8776 7.01798 22.6776C7.01798 22.1947 7.79087 22.1932 7.79087 22.6776C7.79092 22.8776 7.62877 23.0398 7.42875 23.0398ZM5.67897 23.0398H5.63036C5.43034 23.0398 5.2682 22.8776 5.2682 22.6776C5.2682 22.1947 6.04113 22.1932 6.04113 22.6776C6.04113 22.8776 5.87894 23.0398 5.67897 23.0398ZM3.92909 23.0398H3.88048C3.68046 23.0398 3.51832 22.8776 3.51832 22.6776C3.51832 22.4776 3.68046 22.3155 3.88048 22.3155H3.92909C4.12911 22.3155 4.29126 22.4776 4.29126 22.6776C4.29126 22.8776 4.12916 23.0398 3.92909 23.0398ZM22.6763 22.2169C22.6704 22.2169 22.6645 22.2168 22.6586 22.2165C22.4587 22.2068 22.3046 22.0371 22.3143 21.8373C22.3147 21.8289 22.3149 21.8205 22.3149 21.8121V21.8062C22.3149 21.6061 22.477 21.444 22.6771 21.444C22.8771 21.444 23.0392 21.6062 23.0392 21.8062V21.8121C23.0392 21.8323 23.0387 21.8523 23.0378 21.8723C23.0284 22.0661 22.8683 22.2169 22.6763 22.2169ZM1.32298 21.7749C1.12296 21.7749 0.960815 21.6128 0.960815 21.4128V21.3642C0.960815 21.1641 1.12296 21.002 1.32298 21.002C1.523 21.002 1.68514 21.1642 1.68514 21.3642V21.4128C1.68519 21.6128 1.52305 21.7749 1.32298 21.7749ZM22.6771 20.4672C22.477 20.4672 22.3149 20.305 22.3149 20.105V20.0564C22.3149 19.8563 22.477 19.6942 22.6771 19.6942C22.8771 19.6942 23.0392 19.8564 23.0392 20.0564V20.105C23.0392 20.305 22.877 20.4672 22.6771 20.4672ZM1.32298 20.0251C1.12296 20.0251 0.960815 19.863 0.960815 19.663V19.6144C0.960815 19.4144 1.12296 19.2523 1.32298 19.2523C1.523 19.2523 1.68514 19.4144 1.68514 19.6144V19.663C1.68519 19.863 1.52305 20.0251 1.32298 20.0251ZM1.32298 18.2753C1.12296 18.2753 0.960815 18.1131 0.960815 17.9131V17.8645C0.960815 17.6645 1.12296 17.5024 1.32298 17.5024C1.523 17.5024 1.68514 17.6645 1.68514 17.8645V17.9131C1.68519 18.1132 1.52305 18.2753 1.32298 18.2753ZM1.32298 16.5255C1.12296 16.5255 0.960815 16.3633 0.960815 16.1633V16.1148C0.960815 15.9147 1.12296 15.7526 1.32298 15.7526C1.80702 15.7525 1.80646 16.5255 1.32298 16.5255ZM1.32298 14.7757C1.12296 14.7757 0.960815 14.6136 0.960815 14.4135V14.3649C0.960815 14.1649 1.12296 14.0028 1.32298 14.0028C1.523 14.0028 1.68514 14.1649 1.68514 14.3649V14.4135C1.68519 14.6136 1.52305 14.7757 1.32298 14.7757ZM1.32298 13.0258C1.12296 13.0258 0.960815 12.8637 0.960815 12.6637V12.615C0.960815 12.415 1.12296 12.2529 1.32298 12.2529C1.523 12.2529 1.68514 12.415 1.68514 12.615V12.6637C1.68519 12.8637 1.52305 13.0258 1.32298 13.0258ZM1.32298 11.276C1.12296 11.276 0.960815 11.1139 0.960815 10.9139V10.8653C0.960815 10.6652 1.12296 10.5031 1.32298 10.5031C1.523 10.5031 1.68514 10.6652 1.68514 10.8653V10.9139C1.68519 11.1139 1.52305 11.276 1.32298 11.276ZM22.6771 10.8154C22.477 10.8154 22.3149 10.6533 22.3149 10.4533V10.4047C22.3149 10.2046 22.477 10.0425 22.6771 10.0425C22.8771 10.0425 23.0392 10.2046 23.0392 10.4047V10.4533C23.0392 10.6533 22.877 10.8154 22.6771 10.8154ZM1.32298 9.52621C1.12296 9.52621 0.960815 9.36406 0.960815 9.16404V9.11543C0.960815 8.91537 1.12296 8.75327 1.32298 8.75327C1.523 8.75327 1.68514 8.91541 1.68514 9.11543V9.16404C1.68519 9.36411 1.52305 9.52621 1.32298 9.52621ZM22.3149 8.70499C22.3148 8.69529 22.3145 8.68563 22.3139 8.67607C22.2857 8.19456 23.0368 8.12832 23.0392 8.70185C23.0401 8.90187 22.8786 9.06471 22.6786 9.06556C22.4746 9.0656 22.3157 8.90205 22.3149 8.70499ZM2.12113 8.20609C1.66109 8.20609 1.60381 7.49067 2.16271 7.47942C2.62852 7.4677 2.69344 8.20609 2.12113 8.20609ZM21.4181 8.20346H21.3695C21.1694 8.20346 21.0073 8.04132 21.0073 7.8413C21.0073 7.64128 21.1694 7.47914 21.3695 7.47914H21.4181C21.6181 7.47914 21.7802 7.64128 21.7802 7.8413C21.7802 8.04132 21.6181 8.20346 21.4181 8.20346ZM19.6682 8.20346H19.6196C19.4196 8.20346 19.2575 8.04132 19.2575 7.8413C19.2575 7.64128 19.4196 7.47914 19.6196 7.47914H19.6682C19.8683 7.47914 20.0304 7.64128 20.0304 7.8413C20.0304 8.04132 19.8683 8.20346 19.6682 8.20346ZM17.9184 8.20346H17.8698C17.6698 8.20346 17.5076 8.04132 17.5076 7.8413C17.5076 7.64128 17.6698 7.47914 17.8698 7.47914H17.9184C18.1184 7.47914 18.2806 7.64128 18.2806 7.8413C18.2806 8.04132 18.1184 8.20346 17.9184 8.20346ZM16.1686 8.20346H16.12C15.92 8.20346 15.7578 8.04132 15.7578 7.8413C15.7578 7.64128 15.92 7.47914 16.12 7.47914H16.1686C16.3686 7.47914 16.5307 7.64128 16.5307 7.8413C16.5307 8.04132 16.3686 8.20346 16.1686 8.20346ZM14.4188 8.20346H14.3702C14.1702 8.20346 14.008 8.04132 14.008 7.8413C14.008 7.64128 14.1702 7.47914 14.3702 7.47914H14.4188C14.6188 7.47914 14.781 7.64128 14.781 7.8413C14.781 8.04132 14.6188 8.20346 14.4188 8.20346ZM12.669 8.20346H12.6204C12.4203 8.20346 12.2582 8.04132 12.2582 7.8413C12.2582 7.64128 12.4203 7.47914 12.6204 7.47914H12.669C12.869 7.47914 13.0311 7.64128 13.0311 7.8413C13.0311 8.04132 12.869 8.20346 12.669 8.20346ZM10.9192 8.20346H10.8706C10.6706 8.20346 10.5084 8.04132 10.5084 7.8413C10.5084 7.64128 10.6706 7.47914 10.8706 7.47914H10.9192C11.1192 7.47914 11.2813 7.64128 11.2813 7.8413C11.2813 8.04132 11.1192 8.20346 10.9192 8.20346ZM9.1693 8.20346H9.12069C8.92067 8.20346 8.75853 8.04132 8.75853 7.8413C8.75853 7.35834 9.53147 7.35684 9.53147 7.8413C9.53147 8.04137 9.36937 8.20346 9.1693 8.20346ZM7.41947 8.20346H7.37086C7.17084 8.20346 7.0087 8.04132 7.0087 7.8413C7.0087 7.64128 7.17084 7.47914 7.37086 7.47914H7.41947C7.61949 7.47914 7.78164 7.64128 7.78164 7.8413C7.78164 8.04132 7.61949 8.20346 7.41947 8.20346ZM5.66969 8.20346H5.62108C5.42106 8.20346 5.25891 8.04132 5.25891 7.8413C5.25891 7.64128 5.42106 7.47914 5.62108 7.47914H5.66969C5.86971 7.47914 6.03185 7.64128 6.03185 7.8413C6.03185 8.04132 5.86966 8.20346 5.66969 8.20346ZM3.91981 8.20346H3.8712C3.67118 8.20346 3.50904 8.04132 3.50904 7.8413C3.50904 7.64128 3.67118 7.47914 3.8712 7.47914H3.91981C4.11983 7.47914 4.28197 7.64128 4.28197 7.8413C4.28197 8.04132 4.11988 8.20346 3.91981 8.20346Z" fill="#EAB883"/>
</g>
<defs>
<clipPath id="clip0_1040_7757">
<rect width="24" height="24" fill="white"/>
</clipPath>
</defs>
</svg>
