<svg width="24" height="24" viewBox="0 0 24 24" fill="none" xmlns="http://www.w3.org/2000/svg">
<path d="M21.4177 5.3439C21.4165 5.3439 21.4153 5.34375 21.4141 5.34375H16.1016V4.75781C16.1016 3.78857 15.313 3 14.3438 3H9.65625C8.68701 3 7.89844 3.78857 7.89844 4.75781V5.34375H2.58594C2.2597 5.34375 2 5.61108 2 5.92969V18.8203C2 19.7896 2.78857 20.5781 3.75781 20.5781H20.2422C21.2114 20.5781 22 19.7896 22 18.8203V5.94205C22 5.94128 22 5.94052 22 5.93976C21.9776 5.55493 21.7409 5.34604 21.4177 5.3439ZM9.07031 4.75781C9.07031 4.43478 9.33322 4.17188 9.65625 4.17188H14.3438C14.6668 4.17188 14.9297 4.43478 14.9297 4.75781V5.34375H9.07031V4.75781ZM20.6011 6.51562L18.7815 11.9743C18.7017 12.214 18.4783 12.375 18.2257 12.375H14.9297V11.7891C14.9297 11.4654 14.6674 11.2031 14.3438 11.2031H9.65625C9.33261 11.2031 9.07031 11.4654 9.07031 11.7891V12.375H5.77426C5.52173 12.375 5.29834 12.214 5.21854 11.9743L3.39893 6.51562H20.6011ZM13.7578 12.375V13.5469H10.2422V12.375H13.7578ZM20.8281 18.8203C20.8281 19.1433 20.5652 19.4062 20.2422 19.4062H3.75781C3.43478 19.4062 3.17188 19.1433 3.17188 18.8203V9.54037L4.10678 12.3449C4.34634 13.0639 5.01651 13.5469 5.77426 13.5469H9.07031V14.1328C9.07031 14.4565 9.33261 14.7188 9.65625 14.7188H14.3438C14.6674 14.7188 14.9297 14.4565 14.9297 14.1328V13.5469H18.2257C18.9835 13.5469 19.6537 13.0639 19.8932 12.3449L20.8281 9.54037V18.8203Z" fill="#12477B"/>
</svg>
